<?xml version="1.0" standalone="no"?>
<!DOCTYPE svg PUBLIC "-//W3C//DTD SVG 1.1//EN" "http://www.w3.org/Graphics/SVG/1.1/DTD/svg11.dtd" >
<svg xmlns="http://www.w3.org/2000/svg">
<metadata></metadata>
<defs>
<font id="museo-100italicuploaded_file" horiz-adv-x="1626" >
<font-face units-per-em="2048" ascent="1577" descent="-471" />
<missing-glyph horiz-adv-x="563" />
<glyph unicode="&#xfb01;" horiz-adv-x="1026" d="M59 0l185 946h-129l14 78h129l8 41q23 119 72 201t110.5 116.5t109.5 48t95 13.5l64 -4l-17 -78q-23 4 -51 4q-39 0 -75.5 -10t-83 -39t-83 -93.5t-55.5 -156.5l-8 -43h457q102 0 102 -80q0 -18 -8 -63l-143 -738q-6 -31 -7 -37q0 -29 39 -28h88l-14 -78h-100 q-98 0 -99 84q0 31 7 59l141 727q6 31 6 48q0 29 -37 28h-446l-185 -946h-86zM874 1284l31 150h94l-30 -150h-95z" />
<glyph unicode="&#xfb02;" horiz-adv-x="1017" d="M59 0l185 946h-129l14 78h129l8 41q23 115 72 194.5t110.5 113.5t109.5 47.5t95 13.5h215q102 0 103 -80q0 -14 -8 -60l-224 -1151q-6 -31 -6 -37q0 -29 39 -28h88l-14 -78h-101q-98 0 -98 84q0 23 6 51l221 1145q6 31 7 47q0 29 -37 29h-195q-37 0 -74.5 -10.5t-84 -38 t-83 -89t-55.5 -151.5l-8 -43h281l-15 -78h-280l-185 -946h-86z" />
<glyph unicode="&#xfb03;" horiz-adv-x="1591" d="M59 0l185 946h-129l14 78h129l8 41q23 119 72 201t110.5 116.5t109.5 48t95 13.5l64 -4l-17 -78q-23 4 -51 4q-39 0 -75.5 -10t-83 -39t-83 -93.5t-55.5 -156.5l-8 -43h481l9 41q23 119 71.5 201t110 116.5t110 48t95.5 13.5l63 -4l-16 -78q-23 4 -51 4q-39 0 -76 -10 t-83 -39t-83 -93.5t-55 -156.5l-9 -43h455q102 0 102 -80q0 -18 -8 -63l-143 -738q-6 -31 -6 -37q0 -29 39 -28h88l-15 -78h-100q-98 0 -98 84q0 31 6 59l141 727q6 31 6 48q0 29 -37 28h-444l-184 -946h-86l184 946h-481l-185 -946h-86zM1440 1284l30 150h95l-31 -150h-94z " />
<glyph unicode="&#xfb04;" horiz-adv-x="1585" d="M59 0l185 946h-129l14 78h129l8 41q23 119 72 201t110.5 116.5t109.5 48t95 13.5l64 -4l-17 -78q-23 4 -51 4q-39 0 -75.5 -10t-83 -39t-83 -93.5t-55.5 -156.5l-8 -43h481l9 41q23 115 71.5 194.5t110 113.5t110 47.5t95.5 13.5h215q102 0 102 -80q0 -14 -8 -60 l-223 -1151q-6 -31 -7 -37q0 -29 39 -28h88l-14 -78h-100q-98 0 -99 84q0 23 7 51l221 1145q6 31 6 47q0 29 -37 29h-194q-37 0 -75 -10.5t-84 -38t-83 -89t-55 -151.5l-9 -43h281l-14 -78h-281l-184 -946h-86l184 946h-481l-185 -946h-86z" />
<glyph horiz-adv-x="0" />
<glyph unicode="&#xd;" horiz-adv-x="681" />
<glyph unicode=" "  horiz-adv-x="563" />
<glyph unicode="&#x09;" horiz-adv-x="563" />
<glyph unicode="&#xa0;" horiz-adv-x="563" />
<glyph unicode="!" horiz-adv-x="464" d="M55 0l25 121h117l-25 -121h-117zM137 358l211 1076h88l-211 -1076h-88z" />
<glyph unicode="&#x22;" horiz-adv-x="557" d="M229 1143l60 309h88l-60 -309h-88zM442 1143l60 309h88l-60 -309h-88z" />
<glyph unicode="#" horiz-adv-x="1445" d="M39 408l31 81h311l168 453h-311l30 82h312l151 410h88l-151 -410h387l151 410h88l-151 -410h305l-31 -82h-305l-168 -453h305l-30 -81h-306l-151 -408h-88l151 408h-387l-151 -408h-88l151 408h-311zM469 489h387l168 453h-387z" />
<glyph unicode="$" horiz-adv-x="1024" d="M-6 170l63 63q4 -6 14.5 -18t43 -42t69.5 -52.5t96.5 -41t122.5 -18.5q164 0 278 95.5t114 242.5q0 98 -61.5 167t-147.5 109t-173 82t-148.5 117.5t-61.5 186.5q0 160 120.5 272.5t311.5 122.5l39 193h88l-39 -193q123 -8 214 -57t91 -135q0 -18 -4 -43l-16 -82h-88 l12 59q6 27 6 43q0 61 -77 96t-183 35q-180 0 -281.5 -90t-101.5 -219q0 -88 61.5 -149.5t147.5 -100.5t173 -83t148.5 -125t61.5 -199q0 -178 -126 -300t-325 -131l-37 -188h-88l37 193q-70 6 -131 28.5t-100 49t-69 52t-42 42.5z" />
<glyph unicode="%" horiz-adv-x="1374" d="M-25 0l1356 1434h117l-1358 -1434h-115zM203 1159q0 113 96 206t217 93q104 0 168 -63.5t64 -167.5q0 -119 -95.5 -211t-216.5 -92q-106 0 -169.5 63.5t-63.5 171.5zM291 1153q0 -63 40.5 -105t108.5 -42q86 0 152.5 66.5t66.5 156.5q0 63 -40.5 105t-106.5 42 q-86 0 -153.5 -67.5t-67.5 -155.5zM666 211q0 113 96 206t217 93q104 0 167.5 -63.5t63.5 -167.5q0 -119 -95 -211.5t-216 -92.5q-106 0 -169.5 63.5t-63.5 172.5zM754 205q0 -63 41 -105.5t108 -42.5q86 0 152.5 66.5t66.5 157.5q0 63 -41 105t-106 42q-86 0 -153.5 -67.5 t-67.5 -155.5z" />
<glyph unicode="&#x26;" horiz-adv-x="1253" d="M45 326q0 154 98.5 281.5t255.5 168.5v4q-6 2 -16 7.5t-37 24.5t-47 45t-36.5 74t-16.5 105q0 176 133 299t334 123q43 0 86 -6t65 -10l23 -6l-41 -80q-68 18 -137 18q-150 0 -259.5 -94t-109.5 -246q0 -219 301 -219h334l41 209h88l-41 -209h199l-17 -82h-198l-46 -229 q-104 -528 -542 -529q-193 0 -303.5 96.5t-110.5 254.5zM137 340q0 -129 84 -205t238 -76q367 0 454 445l45 229h-329q-205 0 -348.5 -107.5t-143.5 -285.5z" />
<glyph unicode="'" horiz-adv-x="344" d="M229 1143l60 309h88l-60 -309h-88z" />
<glyph unicode="(" horiz-adv-x="503" d="M105 345q0 627 411 1140h95q-422 -537 -422 -1143q0 -279 96 -536h-86q-94 256 -94 539z" />
<glyph unicode=")" horiz-adv-x="507" d="M-90 -195q422 537 422 1143q0 279 -96 537h86q94 -256 94 -539q0 -627 -412 -1141h-94z" />
<glyph unicode="*" horiz-adv-x="946" d="M184 1124l43 84l295 -110l56 336h96l-76 -336l342 108l12 -86l-342 -100v-4l146 -262l-76 -52l-139 275h-4l-244 -272l-68 53l254 268v4z" />
<glyph unicode="+" horiz-adv-x="1228" d="M72 539l14 82h485l107 538h88l-107 -538h484l-15 -82h-483l-106 -539h-88l106 539h-485z" />
<glyph unicode="," horiz-adv-x="452" d="M-72 -193l172 318h107l-195 -318h-84z" />
<glyph unicode="-" horiz-adv-x="860" d="M133 539l14 82h566l-15 -82h-565z" />
<glyph unicode="." horiz-adv-x="415" d="M35 0l22 121h117l-22 -121h-117z" />
<glyph unicode="/" horiz-adv-x="790" d="M-47 -86l829 1602h97l-830 -1602h-96z" />
<glyph unicode="0" horiz-adv-x="1222" d="M117 428q0 119 19.5 250t68.5 272.5t119.5 252t184.5 183t253 72.5q385 0 385 -457q0 -152 -34 -317.5t-104.5 -330.5t-202.5 -271.5t-304 -106.5q-385 0 -385 453zM207 424q0 -362 297 -363q119 0 217 67t158.5 168t101.5 231t57.5 249t16.5 228q0 369 -295 368 q-139 0 -251 -92t-174.5 -238.5t-95 -305t-32.5 -312.5z" />
<glyph unicode="1" horiz-adv-x="819" d="M-33 0l15 82h325l228 1167l16 72h-4q-20 -27 -94 -88l-203 -170l-49 59l370 312h88l-264 -1352h318l-17 -82h-729z" />
<glyph unicode="2" horiz-adv-x="1116" d="M-10 102q0 100 54 186.5t139 149t189.5 120.5t209 115.5t189.5 119t139.5 144.5t54.5 179q0 119 -74 187.5t-207 68.5q-119 0 -210 -52t-107 -130l-13 -62h-88l17 84q25 125 147.5 185.5t263.5 60.5q172 0 268.5 -94t96.5 -244q0 -109 -54.5 -201t-140.5 -159.5 t-189.5 -128t-208 -115.5t-190.5 -110.5t-140 -127t-54 -151.5q0 -27 8 -36t31 -9h676q45 0 53 45l20 100h86l-20 -108q-23 -119 -143 -119h-707q-55 0 -75.5 23.5t-20.5 78.5z" />
<glyph unicode="3" horiz-adv-x="1091" d="M-10 174l69 59q4 -6 14.5 -18t44.5 -42t70.5 -53.5t96 -42t121.5 -18.5q176 0 312 122t136 294q0 139 -92 210t-236 71l-102 -6l-16 65l516 496l53 41v4q-39 -4 -62 -4h-501q-45 0 -54 -45l-20 -101h-86l20 109q23 119 144 119h706l-12 -62l-563 -536q61 2 124.5 -14.5 t127 -52.5t104.5 -109.5t41 -174.5q0 -209 -159.5 -359.5t-378.5 -150.5q-76 0 -148 20.5t-119 50.5t-82.5 58.5t-52.5 49.5z" />
<glyph unicode="4" horiz-adv-x="1144" d="M-2 410l12 61l924 963h88l-184 -942h231l-16 -82h-232l-80 -410h-88l80 410h-735zM145 492h605l141 722l20 80h-4q-27 -35 -57 -65l-705 -733v-4z" />
<glyph unicode="5" horiz-adv-x="1077" d="M6 162l66 55q4 -6 12 -17.5t38 -38t63.5 -47t89 -38t116.5 -17.5q186 0 330.5 132.5t144.5 314.5q0 141 -92 226t-242 85q-74 0 -147.5 -21.5t-110.5 -43.5l-36 -23l-64 23l176 563q20 66 51 92.5t93 26.5h446q61 0 82.5 -28t9.5 -91l-20 -109h-86l20 101q8 45 -37 45 h-420q-39 0 -53 -45l-117 -379l-30 -88h4q98 61 252 61q184 0 298.5 -109.5t114.5 -283.5q0 -217 -172 -375t-399 -158q-76 0 -143.5 19.5t-109.5 46.5t-71.5 54.5t-42.5 47.5z" />
<glyph unicode="6" horiz-adv-x="1142" d="M96 483q0 102 30 227.5t94.5 257.5t153.5 241.5t219 179t277 69.5q72 0 136.5 -14t93.5 -29l28 -14l-53 -76q-82 49 -205 49q-121 0 -230.5 -58.5t-190 -154.5t-138 -210.5t-90.5 -237.5h4q76 90 189.5 143t232.5 53q174 0 278.5 -98t104.5 -266q0 -139 -62.5 -268.5 t-184 -215.5t-275.5 -86q-199 0 -305.5 140.5t-106.5 367.5zM188 453q0 -154 85 -274t233 -120q182 0 307 140.5t125 345.5q0 131 -79 205.5t-216 74.5q-92 0 -195.5 -45t-181.5 -134t-78 -193z" />
<glyph unicode="7" horiz-adv-x="1003" d="M84 0l891 1294l47 58v4q-31 -4 -68 -4h-630q-47 0 -56 -45l-18 -101h-86l20 109q23 119 144 119h821l-12 -62l-949 -1372h-104z" />
<glyph unicode="8" horiz-adv-x="1161" d="M59 344q0 80 34 158t77 128t99.5 97t83 63.5t46.5 26.5q-143 98 -143 244q0 156 134 276.5t345 120.5q184 0 281.5 -81t97.5 -224q0 -82 -38 -168t-93 -150.5t-89 -98.5t-56 -50q168 -106 168 -260q0 -193 -160 -322t-371 -129q-178 0 -297 96.5t-119 272.5zM154 344 q0 -131 93 -208t228 -77q168 0 302 103.5t134 261.5q0 51 -24.5 94t-74.5 78t-96 58.5t-121 58.5t-116 57q-37 -20 -78 -48t-104.5 -82t-103 -132t-39.5 -164zM350 1063q0 -51 21.5 -92t72 -76t89 -56.5t115.5 -57.5t110 -52q29 20 60.5 50t83.5 88.5t85 134t33 151.5 q0 100 -78 160.5t-207 60.5q-166 0 -275.5 -92t-109.5 -219z" />
<glyph unicode="9" horiz-adv-x="1142" d="M61 33l48 76q82 -49 204 -50q121 0 230.5 58.5t190.5 155t138.5 211t90.5 237.5h-5q-76 -90 -189.5 -143.5t-233.5 -53.5q-174 0 -277.5 97.5t-103.5 267.5q0 139 62.5 268t184 215t275.5 86q199 0 305 -140t106 -368q0 -102 -29.5 -227t-94 -257t-153.5 -241.5 t-219 -179.5t-278 -70q-72 0 -134 14.5t-89 28.5zM246 889q0 -129 78 -205t211 -76q92 0 196.5 45t184 134.5t79.5 193.5q0 154 -83 273.5t-230 119.5q-182 0 -309 -141t-127 -344z" />
<glyph unicode=":" horiz-adv-x="409" d="M29 0l22 121h117l-22 -121h-117zM205 903l22 121h117l-22 -121h-117z" />
<glyph unicode=";" horiz-adv-x="534" d="M-12 -193l153 318h107l-176 -318h-84zM293 903l22 121h117l-22 -121h-117z" />
<glyph unicode="&#x3c;" horiz-adv-x="1228" d="M113 543v73l899 404v-98l-772 -340v-4l772 -340v-99z" />
<glyph unicode="=" horiz-adv-x="1228" d="M139 375v82h934v-82h-934zM139 702v82h934v-82h-934z" />
<glyph unicode="&#x3e;" horiz-adv-x="1228" d="M209 139v99l772 340v4l-772 340v98l899 -404v-73z" />
<glyph unicode="?" horiz-adv-x="909" d="M193 0l26 125h121l-27 -125h-120zM229 1362q16 10 45 26.5t112 43t161 26.5q158 0 249 -82t91 -215q0 -100 -46 -183t-115 -141.5t-139.5 -112.5t-129 -125t-74.5 -150l-18 -91h-89l19 91q20 96 78.5 177t128 136t136.5 110.5t111 127t44 157.5q0 94 -68 154.5t-182 60.5 q-68 0 -137.5 -21.5t-106.5 -43.5l-35 -21z" />
<glyph unicode="@" horiz-adv-x="1517" d="M67 365q0 229 124 434t330 325.5t433 120.5q195 0 293 -86t98 -219q0 -37 -6 -67l-135 -695h143l-16 -82h-527q-152 0 -247 94.5t-95 237.5q0 184 146.5 325.5t343.5 141.5h299q4 29 4 51q0 90 -77 153.5t-234 63.5q-154 0 -298.5 -65.5t-251 -175t-171 -256 t-64.5 -301.5q0 -236 142.5 -383.5t373.5 -147.5l-16 -84q-256 0 -424 173.5t-168 441.5zM555 434q0 -113 71.5 -184.5t188.5 -71.5h297l122 635h-292q-150 0 -268.5 -116t-118.5 -263z" />
<glyph unicode="A" horiz-adv-x="1316" d="M-84 0l16 82h35q47 0 74 45l743 1307h97l237 -1313q4 -25 15.5 -32t35.5 -7h37l-16 -82h-55q-55 0 -75 21.5t-34 97.5l-68 377h-608l-215 -377q-41 -76 -71.5 -97.5t-92.5 -21.5h-55zM395 578h549l-106 581l-21 172h-4q-53 -111 -88 -172z" />
<glyph unicode="B" horiz-adv-x="1214" d="M121 80q0 25 10 72l234 1200h-134l17 82h594q143 0 227 -79t84 -214q0 -127 -72.5 -230.5t-187.5 -152.5v-4q80 -31 132 -106t52 -189q0 -156 -93 -276t-228 -160q-70 -23 -164 -23h-371q-100 0 -100 80zM213 111q0 -29 37 -29h350q80 0 125 14q117 35 188.5 134.5 t71.5 226.5t-73.5 191.5t-200.5 64.5h-383l-107 -553q-8 -37 -8 -49zM344 795h391q131 0 228.5 99t97.5 239q0 104 -60.5 161.5t-169.5 57.5h-378z" />
<glyph unicode="C" horiz-adv-x="1429" d="M98 588q0 217 109.5 416.5t305.5 326.5t427 127q180 0 331.5 -71.5t151.5 -196.5q0 -29 -8 -66l-12 -63h-88l16 84q3 14 3 27q0 41 -28 76q-38 46 -104.5 72t-134.5 39t-125 13q-299 0 -525.5 -233.5t-226.5 -548.5q0 -233 135.5 -381t376.5 -148q143 0 279.5 48.5 t235.5 138.5l49 -68q-96 -94 -253 -149.5t-319 -55.5q-276 0 -436 176.5t-160 436.5z" />
<glyph unicode="D" horiz-adv-x="1472" d="M121 80q0 25 10 72l234 1200h-134l17 82h563q283 0 442.5 -147.5t159.5 -420.5q0 -223 -101.5 -418.5t-302 -321.5t-458.5 -126h-330q-100 0 -100 80zM213 111q0 -29 37 -29h293q238 0 419 115.5t270 291t89 373.5q0 242 -139.5 366t-390.5 124h-338l-232 -1192 q-8 -37 -8 -49z" />
<glyph unicode="E" horiz-adv-x="1140" d="M121 80q0 25 10 72l234 1200h-134l17 82h801q96 0 96 -76q0 -25 -12 -86l-13 -66h-86l13 64q8 45 8 51q0 31 -39 31h-563l-115 -588h571l-16 -82h-571l-101 -522q-8 -37 -8 -49q0 -29 37 -29h581q47 0 56 45l18 100h86l-20 -110q-12 -66 -45 -91.5t-92 -25.5h-613 q-100 0 -100 80z" />
<glyph unicode="F" horiz-adv-x="1019" d="M100 0l265 1352h-134l17 82h739q96 0 96 -76q0 -25 -12 -86l-12 -66h-86l12 64q8 45 8 51q0 31 -39 31h-501l-117 -598h549l-17 -82h-549l-131 -672h-88z" />
<glyph unicode="G" horiz-adv-x="1472" d="M96 578q0 229 120 434t319.5 325.5t425.5 120.5q84 0 160.5 -17.5t129 -43t91 -51t57.5 -43.5l18 -17l-55 -69q-6 6 -16.5 16t-48 37.5t-80.5 48t-113 37t-146 16.5q-307 0 -538.5 -238.5t-231.5 -553.5q0 -233 134.5 -376t357.5 -143q88 0 177 25t152.5 59.5t115 70.5 t75.5 60l27 25l33 168q8 45 8 51q0 31 -39 31h-88l16 82h105q96 0 96 -76q0 -25 -12 -86l-93 -471h-88l25 125l14 61h-4q-78 -82 -216 -146.5t-308 -64.5q-264 0 -422 167.5t-158 435.5z" />
<glyph unicode="H" horiz-adv-x="1521" d="M100 0l246 1264q10 55 10 57q0 31 -39 31h-86l17 82h104q96 0 97 -76q0 -25 -13 -86l-100 -512h909l111 567q12 57 44 82t91 25h108l-16 -82h-92q-43 0 -51 -45l-254 -1307h-88l131 678h-910l-131 -678h-88z" />
<glyph unicode="I" horiz-adv-x="565" d="M-10 0l16 82h129l248 1270h-131l16 82h350l-16 -82h-131l-248 -1270h131l-16 -82h-348z" />
<glyph unicode="J" horiz-adv-x="985" d="M-4 272q0 33 12 119l6 45h88l-8 -45q-10 -57 -10 -98q0 -119 68.5 -175.5t171.5 -56.5q123 0 224 79t134 251l172 883q8 41 8 49q0 29 -39 29h-356l16 82h375q96 0 96 -76q0 -23 -12 -84l-174 -893q-41 -211 -167 -308.5t-277 -97.5q-139 0 -233.5 76t-94.5 221z" />
<glyph unicode="K" horiz-adv-x="1167" d="M100 0l246 1264q10 55 10 57q0 31 -39 31h-86l17 82h104q96 0 97 -76q0 -25 -13 -86l-92 -477h203q82 0 127 53l487 586h113l-510 -607q-18 -23 -37.5 -40t-30.5 -23l-10 -6v-4q23 -16 39 -72l170 -549q16 -51 78 -51h65l-16 -82h-78q-102 0 -135 111l-168 546 q-16 55 -123 56h-190l-140 -713h-88z" />
<glyph unicode="L" horiz-adv-x="1056" d="M121 80q0 25 10 72l215 1112q10 55 10 57q0 31 -39 31h-86l17 82h104q96 0 97 -76q0 -25 -13 -86l-215 -1112q-8 -37 -8 -49q0 -29 37 -29h549q47 0 55 45l18 100h86l-20 -110q-12 -66 -45 -91.5t-92 -25.5h-580q-100 0 -100 80z" />
<glyph unicode="M" horiz-adv-x="1718" d="M-70 0l17 82h80q43 0 55 45l358 1307h82l242 -902l39 -161h4q53 92 100 161l594 902h90l-145 -1274q-4 -37 -4 -49q0 -29 35 -29h82l-17 -82h-86q-57 0 -81.5 21.5t-24.5 70.5q0 18 4 43l108 959l31 190h-4q-63 -121 -111 -190l-542 -818h-91l-225 818l-37 194h-4 q-27 -125 -45 -194l-268 -981q-18 -59 -47 -86t-86 -27h-103z" />
<glyph unicode="N" horiz-adv-x="1529" d="M-35 0l17 82h86q47 0 55 45l254 1307h78l596 -1125l86 -178h4q12 106 26 178l197 1018q20 106 135 107h109l-17 -82h-92q-43 0 -51 -45l-254 -1307h-80l-596 1124l-82 176h-4q-14 -104 -29 -176l-196 -1011q-25 -113 -135 -113h-107z" />
<glyph unicode="O" d="M96 590q0 229 126 431t328 319.5t423 117.5q266 0 433 -168t167 -430q0 -233 -126 -439t-329 -326t-422 -120q-266 0 -433 172.5t-167 442.5zM188 590q0 -231 144.5 -380t374.5 -149q190 0 369 107.5t292 293t113 396.5q0 225 -144.5 369.5t-373.5 144.5 q-195 0 -373 -104.5t-290 -286.5t-112 -391z" />
<glyph unicode="P" horiz-adv-x="1171" d="M100 0l265 1352h-134l17 82h569q172 0 275.5 -91.5t103.5 -257.5q0 -154 -85 -273.5t-210 -172.5q-106 -45 -219 -45h-377l-117 -594h-88zM322 676h358q176 0 300 113.5t124 291.5q0 135 -77 203t-216 68h-358z" />
<glyph unicode="Q" d="M96 590q0 229 125 431t326 319.5t416 117.5q270 0 440 -168t170 -430q0 -184 -81 -354t-218 -297l141 -186l-61 -54l-144 189q-233 -182 -504 -182q0 -1 -1 -1q-269 0 -439 173q-170 172 -170 442zM188 590q0 -231 144.5 -380t374.5 -149q242 0 454 164l-143 189l61 53 l144 -191q119 115 188.5 266.5t69.5 315.5q0 225 -144.5 369.5t-373.5 144.5q-195 0 -373 -104.5t-290 -286.5t-112 -391z" />
<glyph unicode="R" horiz-adv-x="1204" d="M100 0l265 1352h-134l17 82h583q156 0 246 -86t90 -240q0 -174 -109.5 -302t-269.5 -155v-4q16 -14 27 -49l143 -469q12 -47 70 -47h57l-16 -82h-59q-63 0 -92 22.5t-48 86.5l-131 432q-18 61 -43.5 77.5t-87.5 16.5h-295l-125 -635h-88zM330 717h368q156 0 266.5 111.5 t110.5 275.5q0 121 -65.5 184.5t-188.5 63.5h-368z" />
<glyph unicode="S" horiz-adv-x="1038" d="M0 170l63 63q4 -6 14.5 -18t43.5 -42t69.5 -52.5t96 -41t123.5 -18.5q164 0 277.5 95.5t113.5 242.5q0 98 -61.5 166t-148.5 109t-173 84t-147.5 118.5t-61.5 184.5q0 170 136 283.5t343 113.5q133 0 239.5 -50t106.5 -144q0 -18 -4 -43l-16 -82h-88l12 59q6 27 6 43 q0 61 -76.5 96t-183.5 35q-180 0 -281.5 -90t-101.5 -219q0 -88 61.5 -149.5t148.5 -100.5t173 -83t147.5 -126t61.5 -198q0 -186 -135 -308.5t-346 -122.5q-80 0 -152 20.5t-117 48.5t-79.5 56.5t-49.5 49.5z" />
<glyph unicode="T" horiz-adv-x="1239" d="M147 1206l25 129q10 55 37 77t84 22h960q96 0 97 -76q0 -25 -13 -86l-12 -66h-86l12 64q8 45 9 51q0 31 -39 31h-412l-264 -1352h-88l264 1352h-414q-47 0 -55 -45l-19 -101h-86z" />
<glyph unicode="U" horiz-adv-x="1441" d="M168 369q0 55 12 116l152 779q10 55 10 59q0 29 -39 29h-86l16 82h105q96 0 96 -76q0 -25 -12 -86l-154 -787q-10 -47 -10 -102q0 -152 92 -237t258 -85q199 0 338 117t178 316l162 833q20 106 135 107h109l-17 -82h-92q-43 0 -51 -45l-162 -834q-43 -227 -204.5 -362.5 t-395.5 -135.5q-203 0 -321.5 106t-118.5 288z" />
<glyph unicode="V" horiz-adv-x="1298" d="M152 1352l16 82h45q49 0 71.5 -26t34.5 -93l187 -1041l20 -172h4q47 96 91 172l589 1041q43 76 74 97.5t94 21.5h45l-16 -82h-23q-51 0 -77 -45l-744 -1307h-96l-236 1307q-8 45 -53 45h-26z" />
<glyph unicode="W" horiz-adv-x="1878" d="M160 1352l16 82h35q63 0 91 -25t32 -94l67 -1049l5 -153h4l71 153l568 1159h104l80 -1159l4 -153h4q33 84 66 153l475 1049q53 119 155 119h60l-17 -82h-32q-53 0 -74 -45l-598 -1307h-109l-77 1081l-7 228h-4q-57 -133 -102 -226l-533 -1083h-108l-90 1300q-2 51 -51 52 h-35z" />
<glyph unicode="X" horiz-adv-x="1153" d="M-66 0l615 764l-227 532q-25 55 -86 56h-50l17 82h49q68 0 97.5 -24t60.5 -95l141 -332l63 -156h4l121 156l267 332q57 74 99 96.5t114 22.5h51l-17 -82h-30q-78 0 -121 -56l-447 -546l330 -750h-96l-236 537l-61 145h-4l-115 -145l-432 -537h-107z" />
<glyph unicode="Y" horiz-adv-x="1198" d="M160 1352l16 82h39q61 0 91 -25t59 -94l182 -447l57 -161h4q61 92 119 161l354 447q59 74 96 96.5t107 22.5h43l-16 -82h-37q-57 0 -100 -56l-535 -673l-123 -623h-88l123 623l-275 673q-23 55 -69 56h-47z" />
<glyph unicode="Z" horiz-adv-x="1216" d="M-41 0l14 70l1037 1151l131 131v4q-33 -4 -105 -4h-659q-47 0 -55 -45l-19 -101h-88l21 109q23 119 143 119h893l-15 -70l-1038 -1151l-131 -131v-4q33 4 105 4h708q47 0 55 45l19 100h88l-21 -108q-23 -119 -143 -119h-940z" />
<glyph unicode="[" horiz-adv-x="495" d="M60 -75l280 1441q23 119 142 119h102l-16 -82h-89q-45 0 -53 -45l-276 -1425q-8 -45 37 -45h88l-17 -82h-102q-63 0 -85.5 28t-10.5 91z" />
<glyph unicode="\" horiz-adv-x="784" d="M266 1516h86l205 -1602h-86z" />
<glyph unicode="]" horiz-adv-x="495" d="M-59 -194l16 82h86q45 0 54 45l276 1425q8 45 -37 45h-88l16 82h103q63 0 85.5 -27.5t10.5 -91.5l-280 -1441q-23 -119 -142 -119h-100z" />
<glyph unicode="^" horiz-adv-x="1228" d="M39 516l403 918h66l403 -918h-94l-342 795l-342 -795h-94z" />
<glyph unicode="_" horiz-adv-x="1050" d="M-117 -82l15 82h1015l-14 -82h-1016z" />
<glyph unicode="`" horiz-adv-x="702" d="M254 1763h111l94 -227h-86z" />
<glyph unicode="a" horiz-adv-x="1032" d="M2 242q0 113 65.5 192.5t175 118.5t221 55.5t236.5 16.5h78l6 32q12 63 13 111q0 201 -234 201q-86 0 -169 -22.5t-93 -78.5l-12 -69h-86l18 94q10 55 75.5 93t136.5 50.5t140 12.5q156 0 233 -76t77 -201q0 -51 -15 -129l-94 -487q0 -4 -3 -14.5t-4 -19.5t-1 -13 q0 -31 37 -31h88l-14 -78h-93q-108 0 -108 81q0 56 26 140h-4q2 0 -13 -25.5t-49 -61.5t-79 -71.5t-113.5 -61.5t-144.5 -26q-125 0 -211 67t-86 200zM94 252q0 -92 59.5 -144.5t155.5 -52.5q166 0 290 141.5t153 292.5l10 56h-64q-604 0 -604 -293z" />
<glyph unicode="b" horiz-adv-x="1144" d="M41 0l248 1280q6 27 6 47q0 29 -37 29h-88l16 78h97q104 0 104 -80q0 -14 -8 -60l-74 -383l-29 -94h5q57 102 164.5 167t230.5 65q178 0 275.5 -107.5t97.5 -296.5q0 -287 -168 -478.5t-387 -191.5q-123 0 -212 60.5t-120 171.5h-4q0 -47 -11 -101l-20 -106h-86zM211 377 q0 -139 70.5 -228.5t210.5 -89.5q178 0 322 162t144 420q0 152 -75.5 238t-206.5 86q-139 0 -248 -90.5t-163 -223.5t-54 -274z" />
<glyph unicode="c" horiz-adv-x="1060" d="M59 414q0 268 186.5 451.5t422.5 183.5q76 0 154 -19q80 -18 140 -70q50 -43 50 -99q0 -11 -2 -23l-15 -80h-86l11 59q1 8 1 15q0 41 -39 71q-46 35 -104.5 48.5t-118.5 13.5q-195 0 -352 -158t-157 -387q0 -168 92 -264.5t258 -96.5q102 0 191 34t126 67l37 33l33 -78 q-6 -6 -16.5 -15.5t-47.5 -33t-79 -42t-109.5 -34t-138.5 -15.5q-201 0 -319 117t-118 322z" />
<glyph unicode="d" horiz-adv-x="1167" d="M59 379q0 289 167 479.5t390 190.5q121 0 210 -60.5t120 -171.5h4q2 47 11 94l71 369q6 29 6 47q0 29 -37 29h-88l17 78h96q104 0 104 -80q0 -14 -8 -60l-223 -1140q-6 -25 -6 -45q0 -31 35 -31h88l-15 -78h-92q-106 0 -106 80q0 53 26 125h-4q-55 -94 -159.5 -162 t-229.5 -68q-180 0 -278.5 108t-98.5 296zM150 383q0 -152 75.5 -238t208.5 -86q137 0 247 92.5t163 225.5t53 270q0 139 -70.5 228.5t-210.5 89.5q-178 0 -322 -162t-144 -420z" />
<glyph unicode="e" horiz-adv-x="1087" d="M57 403q0 254 173 450t429 196q174 0 262.5 -99.5t88.5 -263.5q0 -33 -7.5 -73t-13.5 -64l-6 -23h-821q-12 -51 -12 -112q0 -156 94 -255.5t266 -99.5q86 0 172 32t129 65l41 32l33 -77q-18 -14 -52 -37t-133.5 -61t-193.5 -38q-199 0 -324 115.5t-125 312.5zM182 606 h727q8 39 9 86q0 137 -73 207t-192 70q-150 0 -280 -95.5t-191 -267.5z" />
<glyph unicode="f" horiz-adv-x="579" d="M59 0l185 946h-129l14 78h129l8 41q23 119 72 201t110.5 116.5t109.5 48t95 13.5l64 -4l-17 -78q-23 4 -51 4q-39 0 -75.5 -10t-83 -39t-83 -93.5t-55.5 -156.5l-8 -43h281l-15 -78h-280l-185 -946h-86z" />
<glyph unicode="g" horiz-adv-x="1148" d="M-4 -350l47 74q121 -70 268 -70q180 0 307 96t162 313q8 43 17.5 80t13.5 52l6 14h-4q-131 -209 -364 -209q-178 0 -283 108.5t-105 292.5q0 150 59.5 295.5t186.5 249t291 103.5q125 0 218 -47.5t120 -153.5h4q-4 14 2 51q12 68 45 96.5t98 28.5h101l-15 -80h-88 q-47 0 -55 -45l-174 -903q-29 -145 -114 -244.5t-191.5 -140.5t-231.5 -41q-174 0 -321 80zM152 403q0 -150 79.5 -234.5t219.5 -84.5q109 0 194.5 57.5t138 148.5t79 194.5t26.5 205.5q0 274 -287 275q-205 0 -327.5 -172.5t-122.5 -389.5z" />
<glyph unicode="h" horiz-adv-x="1185" d="M41 0l248 1278q8 37 8 49q0 29 -39 29h-88l16 78h97q104 0 104 -80q0 -14 -8 -60l-86 -440l-21 -86h4q55 98 179.5 189.5t289.5 91.5q289 0 289 -271q0 -49 -14 -129l-98 -506q-6 -31 -7 -37q0 -29 39 -28h88l-14 -78h-100q-100 0 -101 84q0 23 7 51l94 486q16 78 16 141 q0 203 -205 203q-184 0 -332.5 -145.5t-183.5 -323.5l-96 -496h-86z" />
<glyph unicode="i" horiz-adv-x="452" d="M86 84q0 31 6 59l141 727q6 31 7 48q0 29 -37 28h-88l16 78h96q102 0 103 -80q0 -18 -8 -63l-144 -738q-6 -31 -6 -37q0 -29 39 -28h88l-14 -78h-101q-98 0 -98 84zM301 1284l31 149h94l-31 -149h-94z" />
<glyph unicode="j" horiz-adv-x="421" d="M-309 -416l16 80q16 -4 43 -4q39 0 76 10.5t84 38t85 92t56 156.5l178 913q6 31 7 48q0 29 -37 28h-88l16 78h96q102 0 103 -80q0 -16 -9 -61l-180 -926q-23 -121 -71 -202t-109 -115.5t-108.5 -47t-96.5 -12.5zM299 1284l29 150h94l-29 -150h-94z" />
<glyph unicode="k" horiz-adv-x="958" d="M41 0l248 1280q6 27 6 47q0 29 -37 29h-88l16 78h97q104 0 104 -80q0 -14 -8 -60l-131 -676h117q74 0 127 54l360 352h121l-385 -371q-29 -27 -51.5 -44t-30.5 -21l-8 -4l-2 -4q25 -12 47 -72l141 -383q10 -29 28.5 -38t61.5 -9h49l-16 -78h-53q-76 0 -102.5 20.5 t-53.5 88.5l-143 387q-18 47 -107 47h-115l-106 -543h-86z" />
<glyph unicode="l" horiz-adv-x="458" d="M88 84q0 23 6 51l221 1145q6 31 7 47q0 29 -37 29h-88l16 78h96q102 0 103 -80q0 -14 -9 -60l-223 -1151q-6 -31 -6 -37q0 -29 39 -28h88l-14 -78h-101q-98 0 -98 84z" />
<glyph unicode="m" horiz-adv-x="1886" d="M61 0l168 864q6 29 7 49q0 33 -39 33h-84l14 78h96q102 0 103 -82q0 -47 -33 -174h4q51 98 172 189.5t276 91.5q269 0 269 -275v-6h4q51 98 172 189.5t276 91.5q268 0 269 -271q0 -49 -15 -129l-98 -506q-6 -31 -6 -37q0 -29 39 -28h88l-14 -78h-101q-100 0 -100 84 q0 23 6 51l94 486q16 78 17 141q0 203 -185 203q-168 0 -313.5 -147.5t-177.5 -319.5l-97 -498h-86l121 621q16 78 17 141q0 203 -185 203q-176 0 -318 -145.5t-177 -323.5l-97 -496h-86z" />
<glyph unicode="n" horiz-adv-x="1206" d="M61 0l168 864q6 29 7 49q0 33 -39 33h-84l14 78h96q102 0 103 -82q0 -47 -33 -174h4q57 100 180 190.5t289 90.5q289 0 289 -271q0 -49 -15 -129l-98 -506q-6 -31 -6 -37q0 -29 39 -28h88l-14 -78h-101q-100 0 -100 84q0 23 6 51l94 486q16 78 17 141q0 203 -205 203 q-184 0 -332.5 -145.5t-183.5 -323.5l-97 -496h-86z" />
<glyph unicode="o" horiz-adv-x="1230" d="M57 420q0 258 192.5 443.5t444.5 185.5q197 0 320 -123t123 -316q0 -260 -193.5 -447.5t-443.5 -187.5q-197 0 -320 125t-123 320zM147 422q0 -160 101.5 -261.5t261.5 -101.5q205 0 371 163t166 386q0 156 -101.5 256.5t-261.5 100.5q-209 0 -373 -161t-164 -382z" />
<glyph unicode="p" horiz-adv-x="1171" d="M-18 -410l249 1278q6 31 7 45q0 33 -37 33h-88l14 78h102q100 0 101 -76q0 -43 -29 -129h4q57 96 157.5 163t242.5 67q176 0 272 -109t96 -307q0 -276 -168 -467t-389 -191q-119 0 -209 60.5t-121 171.5h-4q-4 -49 -14 -101l-100 -516h-86zM236 391q0 -145 70.5 -238.5 t203.5 -93.5q180 0 326.5 161t146.5 405q0 166 -74.5 253t-208.5 87q-203 0 -333.5 -181.5t-130.5 -392.5z" />
<glyph unicode="q" horiz-adv-x="1161" d="M57 377q0 289 168 480.5t391 191.5q121 0 207 -57.5t117 -162.5h4q0 4 5 33t6 34t6.5 28.5t9.5 28.5t12 21.5t18.5 21.5t23.5 14.5t30.5 11.5t40.5 2h102l-14 -78h-88q-45 0 -54 -45l-256 -1311h-86l101 516l30 101h-4q-59 -100 -159.5 -166t-235.5 -66 q-178 0 -276.5 108t-98.5 294zM147 383q0 -150 76 -237t209 -87q137 0 246.5 92.5t164 225.5t54.5 270q0 139 -70.5 228.5t-210.5 89.5q-178 0 -323.5 -162t-145.5 -420z" />
<glyph unicode="r" horiz-adv-x="669" d="M61 0l175 901q1 7 1 13q0 32 -38 32h-88l16 78h100q55 0 78 -19.5t23 -62.5q0 -20 -16.5 -92t-28.5 -107h4q59 123 158.5 206t222.5 83q29 0 61 -6l-18 -86q-33 4 -45 4q-117 0 -215.5 -94t-150.5 -214t-77 -245l-76 -391h-86z" />
<glyph unicode="s" horiz-adv-x="880" d="M-14 145l59 64l11 -16.5t34 -36t59.5 -45t88 -36t116.5 -16.5q121 0 203 57.5t82 151.5q0 55 -34 97.5t-71.5 61.5t-111.5 50q-63 27 -101 46.5t-85.5 54t-70 79.5t-22.5 105q0 129 102.5 208t256.5 79q117 -1 218 -51q86 -43 86 -115q0 -13 -3 -27l-12 -59h-86l8 49 q1 6 1 12q0 41 -50 72q-56 35 -162 35q-123 0 -196 -52.5t-73 -140.5q0 -57 36 -102t76 -66.5t116 -52.5q63 -27 100 -45.5t82 -51t65.5 -77.5t20.5 -103q0 -127 -100.5 -213t-274.5 -86q-76 0 -141.5 17.5t-105 43t-69.5 50.5t-42 41z" />
<glyph unicode="t" horiz-adv-x="589" d="M119 946l14 78h135l56 285h86l-56 -285h269l-15 -78h-268l-111 -569q-12 -61 -12 -109q0 -66 19.5 -108.5t54.5 -60t61.5 -22.5t61.5 -5l47 4l-17 -80q-20 -4 -51 -4q-41 0 -81 11t-84 37t-71.5 82t-27.5 136q0 51 12 113l113 575h-135z" />
<glyph unicode="u" horiz-adv-x="1210" d="M121 946l14 78h101q100 0 100 -84q0 -23 -6 -51l-94 -486q-16 -78 -17 -141q0 -203 205 -203q180 0 325.5 145.5t180.5 323.5l96 496h86l-168 -864q-6 -29 -6 -49q0 -33 39 -33h84l-14 -78h-97q-102 0 -102 82q0 47 33 174h-4q-55 -98 -176 -189.5t-283 -91.5 q-289 1 -289 271q0 49 14 129l99 506q6 31 6 37q0 29 -39 28h-88z" />
<glyph unicode="v" horiz-adv-x="1024" d="M82 946l14 78h35q53 0 79 -25.5t40 -93.5l135 -684l14 -110h4q27 63 56 110l401 684q45 78 75 98.5t105 20.5h31l-14 -78h-27q-49 0 -78 -49l-526 -897h-82l-176 887q-12 59 -59 59h-27z" />
<glyph unicode="w" horiz-adv-x="1714" d="M82 946l14 78h56q92 0 110 -119l105 -684l12 -110h4q29 61 55 110l436 799h97l125 -799l14 -110h4q29 59 57 110l371 684q41 78 73 98.5t107 20.5h39l-14 -78h-27q-59 0 -88 -49l-489 -897h-92l-131 795l-13 110h-4l-57 -110l-436 -795h-93l-141 897q-8 49 -57 49h-37z " />
<glyph unicode="x" horiz-adv-x="968" d="M-59 0l479 549l-182 354q-20 43 -95 43h-28l14 78h53q57 0 85 -22.5t65 -96.5l125 -248l24 -59h4q23 33 45 59l213 248q70 78 103 98.5t110 20.5h45l-14 -78h-29q-74 0 -110 -43l-326 -371l271 -532h-97l-209 418l-26 59h-4q-20 -29 -47 -59l-363 -418h-106z" />
<glyph unicode="y" horiz-adv-x="1064" d="M-174 -336l47 66l4 -4q4 -4 8 -9.5t12.5 -12.5t17.5 -14t20.5 -14.5t23.5 -12.5t27.5 -8t31.5 -3q119 0 234 184l108 174l-196 887q-10 49 -68 49h-16l16 78h51q49 0 67.5 -25.5t35.5 -93.5l156 -698l16 -96h4q23 47 53 96l424 698q47 76 82 97.5t111 21.5h18l-16 -78 h-17q-57 0 -88 -49l-692 -1137q-117 -190 -289 -190q-53 0 -100 23.5t-68 46.5z" />
<glyph unicode="z" horiz-adv-x="1024" d="M-29 0l13 70l768 778l100 96v4q-39 -4 -107 -4h-456q-47 0 -56 -45l-16 -88h-84l19 94q23 119 141 119h692l-14 -70l-768 -778l-103 -96v-4q41 4 109 4h506q47 0 55 45l16 88h84l-18 -94q-23 -119 -141 -119h-740z" />
<glyph unicode="{" horiz-adv-x="571" d="M58 617l16 82q8 0 20.5 3t45 19.5t60.5 40t55.5 71.5t39.5 110l33 165q20 102 58 177t76 112t88 57.5t80 24.5t67 4l-15 -80q-29 0 -57.5 -7t-72.5 -32.5t-81 -90t-55 -163.5l-37 -190q-12 -61 -38.5 -110.5t-55.5 -76t-56.5 -45t-43.5 -24.5l-19 -4v-4q4 -2 12.5 -7 t29 -22.5t35.5 -39t27.5 -57.5t12.5 -77q0 -27 -6 -57l-43 -217q-12 -61 -13 -107q0 -186 166 -186l-16 -80q-6 -2 -18 -2q-27 0 -56.5 8t-70.5 31.5t-67 79t-26 135.5q0 45 15 123l37 192q6 37 6 66q0 70 -34 114.5t-67 53.5z" />
<glyph unicode="|" horiz-adv-x="581" d="M252 -317v1925h88v-1925h-88z" />
<glyph unicode="}" horiz-adv-x="571" d="M-113 -197l15 82q31 0 58.5 7.5t72.5 33t81 90t54 162.5l41 215q12 63 38.5 114.5t55.5 79t56.5 45t46.5 23.5l16 4v5q-12 6 -31.5 19t-51.5 64.5t-32 112.5q0 27 6 58l37 192q12 61 12 107q0 186 -165 186l16 80q29 2 63.5 -4t76.5 -29t70 -79t28 -140q0 -43 -15 -123 l-33 -168q-6 -37 -6 -66q0 -45 13.5 -78.5t33 -52t40 -30t32.5 -13.5l14 -4l-16 -82q-8 0 -20.5 -3t-45 -19.5t-60.5 -40t-55.5 -71.5t-39.5 -109l-37 -191q-20 -102 -58 -177t-76 -112.5t-87 -59t-81 -26t-67 -2.5z" />
<glyph unicode="~" horiz-adv-x="1150" d="M123 436q0 152 64.5 223.5t170.5 71.5q63 0 113.5 -23.5t82.5 -56.5t61.5 -65.5t71.5 -56t93 -23.5q63 0 100.5 43t45.5 85t8 89h82q0 -152 -64.5 -223.5t-171.5 -71.5q-63 0 -113.5 23.5t-82 56.5t-61 65.5t-71.5 56t-94 23.5q-63 0 -100 -43t-45 -85t-8 -89h-82z" />
<glyph unicode="&#xa1;" horiz-adv-x="432" d="M-29 -410l211 1076h88l-211 -1076h-88zM211 903l25 121h116l-24 -121h-117z" />
<glyph unicode="&#xa2;" horiz-adv-x="1085" d="M98 569q0 162 61.5 318.5t192.5 273.5t303 125l33 172h88l-35 -174q78 -8 138.5 -42t93.5 -74t55.5 -78.5t28.5 -65.5l6 -27l-82 -32q-2 10 -6 25.5t-25.5 56t-50.5 72.5t-85 57.5t-126 25.5q-225 0 -360 -185.5t-135 -447.5q0 -154 75.5 -246t231.5 -92q68 0 132 25 t107 59.5t76 69.5t49 59l15 25l79 -33q-6 -10 -17 -29.5t-53 -67.5t-89 -86t-123 -70.5t-156 -37.5l-33 -172h-88l33 174q-158 18 -246 128t-88 294z" />
<glyph unicode="&#xa3;" horiz-adv-x="1155" d="M-18 0l16 82h131l117 600h-94l16 82h92l68 342q29 147 156.5 249.5t297.5 102.5q86 0 161 -26.5t106 -53.5l30 -26l-67 -62q-8 8 -26.5 22.5t-78 37t-125.5 22.5q-147 0 -246.5 -82t-121.5 -203l-64 -323h406l-17 -82h-405l-117 -600h625q45 0 53 45l20 100h86l-20 -108 q-23 -119 -143 -119h-856z" />
<glyph unicode="&#xa5;" horiz-adv-x="1296" d="M211 1352l16 82h39q61 0 91 -25t59 -94l182 -447l57 -161h4q61 92 119 161l355 447q59 74 96 96.5t106 22.5h43l-16 -82h-37q-57 0 -100 -56l-394 -493h222l-17 -82h-268l-78 -98l-18 -86h327l-14 -82h-330l-88 -455h-88l90 455h-333l14 82h336l16 86l-41 98h-285l17 82 h235l-200 493q-23 55 -70 56h-47z" />
<glyph unicode="&#xa7;" horiz-adv-x="778" d="M-2 -57l61 61q49 -47 131 -47q119 0 197 79t84 195l57 973h86l-53 -968q-8 -154 -110.5 -258.5t-262.5 -104.5q-53 0 -101 17.5t-69 35.5zM193 127l53 969q8 154 110.5 258t261.5 104q53 0 101.5 -17.5t68.5 -35.5l21 -16l-61 -62q-49 47 -132 47q-119 0 -196.5 -78.5 t-83.5 -195.5l-57 -973h-86z" />
<glyph unicode="&#xa8;" horiz-adv-x="995" d="M332 1614l31 149h94l-31 -149h-94zM612 1614l31 149h94l-31 -149h-94z" />
<glyph unicode="&#xa9;" horiz-adv-x="1662" d="M127 717q0 309 211 525t510 216q305 0 517 -216t212 -525q0 -311 -212 -526.5t-517 -215.5q-301 0 -511 215.5t-210 526.5zM219 717q0 -279 181.5 -467.5t447.5 -188.5q270 0 453.5 188.5t183.5 467.5q0 276 -183.5 465.5t-453.5 189.5q-266 0 -447.5 -189.5 t-181.5 -465.5zM432 715q0 174 117 303t323 129q59 0 115.5 -18.5t94.5 -45t68 -53t42 -45.5l14 -18l-67 -60q-10 16 -32 42t-90.5 68t-142.5 42q-166 0 -258 -101.5t-92 -240.5t92.5 -240.5t257.5 -101.5q76 0 141.5 38t94.5 74l29 39l67 -59q-4 -8 -14 -19.5t-43 -43 t-69 -55t-92 -43t-116 -19.5q-207 0 -323.5 127t-116.5 301z" />
<glyph unicode="&#xaa;" horiz-adv-x="892" d="M131 539l14 75h603l-15 -75h-602zM217 950q0 59 26.5 104.5t75 71t94.5 42t105.5 22.5t87 8t60.5 2h26q6 37 6 64q0 61 -32.5 87.5t-106.5 26.5q-123 0 -131 -45l-10 -55h-80l14 76q8 45 71.5 72.5t156.5 27.5q111 0 155.5 -44t44.5 -126q0 -43 -8 -82l-61 -315 q-4 -16 12 -17h63l-16 -75h-80q-78 0 -53 110h-4q-2 -4 -8.5 -13t-26.5 -29.5t-44 -37t-63.5 -30t-84.5 -13.5q-82 0 -135.5 41t-53.5 127zM305 963q0 -47 30 -76t87 -29q96 0 164.5 78t91.5 188h-27q-346 0 -346 -161z" />
<glyph unicode="&#xab;" horiz-adv-x="927" d="M45 584l393 415h117l-408 -426l258 -415h-98zM362 584l418 415h117l-433 -426l258 -415h-98z" />
<glyph unicode="&#xac;" horiz-adv-x="1341" d="M207 702v82h934v-448h-86v366h-848z" />
<glyph unicode="&#xad;" horiz-adv-x="860" d="M133 539l14 82h566l-15 -82h-565z" />
<glyph unicode="&#xae;" horiz-adv-x="1662" d="M127 717q0 309 211 525t510 216q305 0 517 -216t212 -525q0 -311 -212 -526.5t-517 -215.5q-301 0 -511 215.5t-210 526.5zM219 717q0 -279 181.5 -467.5t447.5 -188.5q270 0 453.5 188.5t183.5 467.5q0 276 -183.5 465.5t-453.5 189.5q-266 0 -447.5 -189.5 t-181.5 -465.5zM610 307v819h273q104 0 170.5 -65.5t66.5 -171.5q0 -86 -45 -144.5t-112 -74.5v-4q8 -10 26 -45l162 -314h-100l-174 342h-177v-342h-90zM700 727h172q72 0 114 43t42 119q0 74 -42 114.5t-114 40.5h-172v-317z" />
<glyph unicode="&#xaf;" horiz-adv-x="940" d="M229 1610l15 82h489l-14 -82h-490z" />
<glyph unicode="&#xb0;" horiz-adv-x="720" d="M197 1149q0 119 96 212t217 93q102 0 166.5 -65.5t64.5 -163.5q0 -119 -97 -212t-214 -93q-104 0 -168.5 64.5t-64.5 164.5zM285 1149q0 -63 40.5 -105.5t108.5 -42.5q86 0 152.5 67t66.5 157q0 63 -41 105t-106 42q-86 0 -153.5 -67.5t-67.5 -155.5z" />
<glyph unicode="&#xb1;" horiz-adv-x="1228" d="M80 539v82h485v538h88v-538h484v-82h-484v-539h-88v539h-485zM121 -231h975v-82h-975v82z" />
<glyph unicode="&#xb2;" horiz-adv-x="821" d="M113 608q0 92 61.5 164t148.5 117t173 89t147.5 106.5t61.5 142.5q0 68 -41 105.5t-115 37.5q-66 0 -119 -27.5t-59 -64.5l-11 -55h-79l12 67q12 66 84 113t176 47q106 0 170.5 -56.5t64.5 -160.5q0 -96 -61 -170t-148 -121t-173.5 -89t-147.5 -97.5t-61 -120.5 q0 -16 14 -17h403q16 0 19 15l14 74h80l-14 -80q-14 -86 -101 -86h-428q-43 0 -57 15t-14 52z" />
<glyph unicode="&#xb3;" horiz-adv-x="778" d="M96 657l62 50q4 -4 10 -11.5t27.5 -27t46 -33.5t63.5 -25.5t80 -11.5q92 0 167 71.5t75 172.5q0 74 -55.5 116.5t-131.5 42.5h-65l-15 50l285 272l49 39v4q-23 -6 -55 -6h-258q-20 0 -27 -23l-12 -65h-80l14 65q10 55 35 76t80 21h426l-10 -54l-322 -309q78 -6 150 -60.5 t72 -168.5q0 -125 -97.5 -221.5t-226.5 -96.5q-51 0 -100.5 13.5t-81 33t-57 40t-38.5 32.5z" />
<glyph unicode="&#xb4;" horiz-adv-x="731" d="M203 1536l180 227h119l-205 -227h-94z" />
<glyph unicode="&#xb6;" horiz-adv-x="1091" d="M186 964.5q39 196.5 209 333t371 136.5h430l-14 -82h-342l-283 -1454h-86l115 596q-201 0 -320 137t-80 333.5zM684 -102l256 1325h86l-256 -1325h-86z" />
<glyph unicode="&#xb7;" horiz-adv-x="409" d="M129 526l22 121h117l-22 -121h-117z" />
<glyph unicode="&#xb8;" horiz-adv-x="839" d="M182 -410l15 78q35 -10 82 -10q127 0 127 90q0 63 -111 64l-25 -2l92 227l64 -10l-2 -17l-51 -133q49 -8 82.5 -40t33.5 -81q0 -86 -65.5 -130t-147.5 -44z" />
<glyph unicode="&#xb9;" horiz-adv-x="694" d="M106 541l17 77h194l121 629l17 72h-4q-16 -23 -37 -39l-123 -102l-45 55l237 201h74l-158 -816h193l-17 -77h-469z" />
<glyph unicode="&#xba;" horiz-adv-x="942" d="M156 539l14 75h602l-14 -75h-602zM227 1061q0 160 121 277.5t277 117.5q125 0 202.5 -78t77.5 -198q0 -162 -121.5 -279t-277.5 -117q-125 0 -202 78t-77 199zM307 1067q0 -92 57.5 -149.5t149.5 -57.5q119 0 215 93.5t96 224.5q0 90 -58 146t-151 56q-121 0 -215 -92 t-94 -221z" />
<glyph unicode="&#xbb;" horiz-adv-x="937" d="M27 158l415 420l-254 421h109l254 -421l-416 -420h-108zM354 158l416 420l-254 421h109l254 -421l-416 -420h-109z" />
<glyph unicode="&#xbc;" horiz-adv-x="1662" d="M92 541l17 77h194l121 629l16 72h-4q-16 -23 -37 -39l-123 -102l-45 55l238 201h74l-158 -816h193l-17 -77h-469zM346 0l907 1434h95l-906 -1434h-96zM852 248l10 57l570 588h71l-110 -567h139l-14 -78h-140l-49 -248h-80l49 248h-446zM977 324q31 2 45 2h291l67 344 l19 84h-4q-20 -27 -45 -54l-336 -344l-37 -30v-2z" />
<glyph unicode="&#xbd;" horiz-adv-x="1636" d="M84 541l16 77h195l121 629l16 72h-4q-16 -23 -37 -39l-123 -102l-45 55l238 201h74l-158 -816h192l-16 -77h-469zM315 0l908 1434h94l-905 -1434h-97zM854 68q0 92 61.5 163.5t148.5 116.5t173 89t147.5 106.5t61.5 142.5q0 68 -41 105.5t-115 37.5q-66 0 -119 -27.5 t-59 -64.5l-10 -55h-80l12 68q12 66 84 112.5t176 46.5q106 0 171 -56t65 -161q0 -96 -61.5 -169.5t-148.5 -121t-173 -89.5t-147.5 -97t-61.5 -121q0 -16 14 -16h404q16 0 18 14l15 74h79l-14 -80q-14 -86 -100 -86h-428q-43 0 -57.5 15.5t-14.5 52.5z" />
<glyph unicode="&#xbe;" horiz-adv-x="1673" d="M94 657l62 50q4 -4 10 -11.5t27.5 -27t46 -33.5t63.5 -25.5t80 -11.5q92 0 167 71.5t75 172.5q0 74 -55.5 116.5t-131.5 42.5h-65l-15 50l285 272l49 39v4q-23 -6 -55 -6h-258q-20 0 -27 -23l-12 -65h-80l14 65q10 55 35 76t80 21h426l-10 -54l-322 -309q78 -6 150 -60.5 t72 -168.5q0 -125 -97.5 -221.5t-226.5 -96.5q-51 0 -100.5 13.5t-81 33t-57 40t-36.5 32.5zM356 0l908 1434h94l-905 -1434h-97zM862 248l10 57l570 588h71l-110 -567h139l-14 -78h-139l-50 -248h-79l49 248h-447zM987 324q31 2 45 2h291l68 344l18 84h-4q-20 -27 -45 -54 l-336 -344l-37 -30v-2z" />
<glyph unicode="&#xbf;" horiz-adv-x="952" d="M39 -137q0 100 46 183t114.5 141.5t139.5 112.5t129 125t75 150l18 91h88l-18 -91q-20 -96 -78.5 -177t-128.5 -136t-136.5 -110.5t-110.5 -127t-44 -157.5q0 -94 67.5 -154.5t182.5 -60.5q68 0 137.5 21.5t106.5 43.5l35 21l34 -76q-16 -10 -44.5 -26.5t-111.5 -43 t-161 -26.5q-158 0 -249 82t-91 215zM586 899l26 125h121l-26 -125h-121z" />
<glyph unicode="&#xc0;" horiz-adv-x="1316" d="M-84 0l16 82h35q47 0 74 45l743 1307h97l237 -1313q4 -25 15.5 -32t35.5 -7h37l-16 -82h-55q-55 0 -75 21.5t-34 97.5l-68 377h-608l-215 -377q-41 -76 -71.5 -97.5t-92.5 -21.5h-55zM395 578h549l-106 581l-21 172h-4q-53 -111 -88 -172zM694 1763h111l94 -227h-86z" />
<glyph unicode="&#xc1;" horiz-adv-x="1316" d="M-84 0l16 82h35q47 0 74 45l743 1307h97l237 -1313q4 -25 15.5 -32t35.5 -7h37l-16 -82h-55q-55 0 -75 21.5t-34 97.5l-68 377h-608l-215 -377q-41 -76 -71.5 -97.5t-92.5 -21.5h-55zM395 578h549l-106 581l-21 172h-4q-53 -111 -88 -172zM809 1536l180 227h119 l-205 -227h-94z" />
<glyph unicode="&#xc2;" horiz-adv-x="1316" d="M-84 0l16 82h35q47 0 74 45l743 1307h97l237 -1313q4 -25 15.5 -32t35.5 -7h37l-16 -82h-55q-55 0 -75 21.5t-34 97.5l-68 377h-608l-215 -377q-41 -76 -71.5 -97.5t-92.5 -21.5h-55zM395 578h549l-106 581l-21 172h-4q-53 -111 -88 -172zM635 1536l207 227h107l120 -227 h-96l-84 164h-4l-145 -164h-105z" />
<glyph unicode="&#xc3;" horiz-adv-x="1316" d="M-84 0l16 82h35q47 0 74 45l743 1307h97l237 -1313q4 -25 15.5 -32t35.5 -7h37l-16 -82h-55q-55 0 -75 21.5t-34 97.5l-68 377h-608l-215 -377q-41 -76 -71.5 -97.5t-92.5 -21.5h-55zM395 578h549l-106 581l-21 172h-4q-53 -111 -88 -172zM555 1542q41 221 206 221 q61 0 99.5 -37.5t68 -75.5t68.5 -38q80 0 111 145h81q-41 -221 -204 -221q-49 0 -85 23.5t-52.5 52t-43 52.5t-57.5 24q-80 0 -110 -146h-82z" />
<glyph unicode="&#xc4;" horiz-adv-x="1316" d="M-84 0l16 82h35q47 0 74 45l743 1307h97l237 -1313q4 -25 15.5 -32t35.5 -7h37l-16 -82h-55q-55 0 -75 21.5t-34 97.5l-68 377h-608l-215 -377q-41 -76 -71.5 -97.5t-92.5 -21.5h-55zM395 578h549l-106 581l-21 172h-4q-53 -111 -88 -172zM684 1614l31 149h94l-31 -149 h-94zM965 1614l30 149h95l-31 -149h-94z" />
<glyph unicode="&#xc5;" horiz-adv-x="1316" d="M-84 0l16 82h35q47 0 74 45l743 1307h97l237 -1313q4 -25 15.5 -32t35.5 -7h37l-16 -82h-55q-55 0 -75 21.5t-34 97.5l-68 377h-608l-215 -377q-41 -76 -71.5 -97.5t-92.5 -21.5h-55zM395 578h549l-106 581l-21 172h-4q-53 -111 -88 -172zM734 1634q0 63 50 110.5 t111 47.5q57 0 93 -34t36 -87q0 -63 -48.5 -110.5t-114.5 -47.5q-55 0 -91 34t-36 87zM809 1636q1 -53 54 -53q39 0 62.5 24.5t23.5 63.5q0 53 -58 53q-33 0 -57.5 -25.5t-24.5 -62.5z" />
<glyph unicode="&#xc6;" horiz-adv-x="1630" d="M-109 0l17 82h22q31 0 45.5 8t30.5 37l744 1307h788q96 0 96 -76q0 -25 -12 -86l-12 -66h-86l12 64q8 45 8 51q0 31 -39 31h-542l-115 -588h551l-17 -82h-551l-100 -522q-8 -37 -8 -49q0 -29 37 -29h561q47 0 55 45l19 100h86l-21 -110q-12 -66 -45 -91.5t-92 -25.5h-592 q-100 0 -100 80q0 25 10 72l102 530h-323l-320 -563q-45 -78 -72.5 -98.5t-101.5 -20.5h-35zM467 764h293l114 588h-73z" />
<glyph unicode="&#xc7;" horiz-adv-x="1431" d="M100 588q0 217 109.5 416.5t305.5 326.5t427 127q180 0 331.5 -71.5t151.5 -196.5q0 -29 -8 -66l-12 -63h-88l16 84q12 57 -25.5 103t-104 72t-134.5 39t-125 13q-299 0 -525 -233.5t-226 -548.5q0 -233 135 -381t377 -148q143 0 279 48.5t235 138.5l49 -68 q-96 -94 -253 -149.5t-319 -55.5q-4 0 -10 1t-10 1l-37 -100q49 -8 83 -40t34 -81q0 -86 -65.5 -130t-147.5 -44l-94 8l14 78q35 -10 82 -10q127 0 127 90q0 63 -111 64l-24 -2l69 172q-238 29 -372 198.5t-134 407.5z" />
<glyph unicode="&#xc8;" horiz-adv-x="1142" d="M123 80q0 25 10 72l234 1200h-134l17 82h801q96 0 96 -76q0 -25 -12 -86l-13 -66h-86l13 64q8 45 8 51q0 31 -39 31h-563l-115 -588h571l-16 -82h-571l-101 -522q-8 -37 -8 -49q0 -29 37 -29h581q47 0 56 45l18 100h86l-20 -110q-12 -66 -45 -91.5t-92 -25.5h-613 q-100 0 -100 80zM614 1763h111l94 -227h-86z" />
<glyph unicode="&#xc9;" horiz-adv-x="1142" d="M123 80q0 25 10 72l234 1200h-134l17 82h801q96 0 96 -76q0 -25 -12 -86l-13 -66h-86l13 64q8 45 8 51q0 31 -39 31h-563l-115 -588h571l-16 -82h-571l-101 -522q-8 -37 -8 -49q0 -29 37 -29h581q47 0 56 45l18 100h86l-20 -110q-12 -66 -45 -91.5t-92 -25.5h-613 q-100 0 -100 80zM729 1536l180 227h119l-205 -227h-94z" />
<glyph unicode="&#xca;" horiz-adv-x="1142" d="M123 80q0 25 10 72l234 1200h-134l17 82h801q96 0 96 -76q0 -25 -12 -86l-13 -66h-86l13 64q8 45 8 51q0 31 -39 31h-563l-115 -588h571l-16 -82h-571l-101 -522q-8 -37 -8 -49q0 -29 37 -29h581q47 0 56 45l18 100h86l-20 -110q-12 -66 -45 -91.5t-92 -25.5h-613 q-100 0 -100 80zM555 1536l207 227h107l120 -227h-96l-84 164h-4l-145 -164h-105z" />
<glyph unicode="&#xcb;" horiz-adv-x="1142" d="M123 80q0 25 10 72l234 1200h-134l17 82h801q96 0 96 -76q0 -25 -12 -86l-13 -66h-86l13 64q8 45 8 51q0 31 -39 31h-563l-115 -588h571l-16 -82h-571l-101 -522q-8 -37 -8 -49q0 -29 37 -29h582q47 0 55 45l18 100h86l-20 -110q-12 -66 -45 -91.5t-92 -25.5h-613 q-100 0 -100 80zM604 1614l31 149h94l-31 -149h-94zM885 1614l30 149h95l-31 -149h-94z" />
<glyph unicode="&#xcc;" horiz-adv-x="565" d="M-10 0l16 82h129l248 1270h-131l16 82h350l-16 -82h-131l-248 -1270h131l-16 -82h-348zM299 1763h111l94 -227h-86z" />
<glyph unicode="&#xcd;" horiz-adv-x="565" d="M-10 0l16 82h129l248 1270h-131l16 82h350l-16 -82h-131l-248 -1270h131l-16 -82h-348zM414 1536l180 227h119l-205 -227h-94z" />
<glyph unicode="&#xce;" horiz-adv-x="565" d="M-10 0l16 82h129l248 1270h-131l16 82h350l-16 -82h-131l-248 -1270h131l-16 -82h-348zM239 1536l207 227h107l120 -227h-96l-84 164h-4l-145 -164h-105z" />
<glyph unicode="&#xcf;" horiz-adv-x="565" d="M-10 0l16 82h129l248 1270h-131l16 82h350l-16 -82h-131l-248 -1270h131l-16 -82h-348zM289 1614l30 149h95l-31 -149h-94zM569 1614l31 149h94l-30 -149h-95z" />
<glyph unicode="&#xd0;" horiz-adv-x="1474" d="M123 80q0 25 10 72l103 530h-103l17 82h102l115 588h-134l17 82h563q283 0 442.5 -147.5t159.5 -420.5q0 -223 -101.5 -418.5t-302 -321.5t-458.5 -126h-330q-100 0 -100 80zM215 111q0 -29 37 -29h293q238 0 419 115.5t270 291t89 373.5q0 242 -139.5 366t-390.5 124 h-338l-115 -588h375l-17 -82h-374l-101 -522q-8 -37 -8 -49z" />
<glyph unicode="&#xd1;" horiz-adv-x="1529" d="M-35 0l17 82h86q47 0 55 45l254 1307h78l596 -1125l86 -178h4q12 106 26 178l197 1018q20 106 135 107h109l-17 -82h-92q-43 0 -51 -45l-254 -1307h-80l-596 1124l-82 176h-4q-14 -104 -29 -176l-196 -1011q-25 -113 -135 -113h-107zM672 1542q41 221 206 221 q61 0 99.5 -37.5t68 -75.5t68.5 -38q80 0 111 145h81q-41 -221 -204 -221q-49 0 -85 23.5t-52.5 52t-43 52.5t-57.5 24q-80 0 -110 -146h-82z" />
<glyph unicode="&#xd2;" d="M96 590q0 229 126 431t328 319.5t423 117.5q266 0 433 -168t167 -430q0 -233 -126 -439t-329 -326t-422 -120q-266 0 -433 172.5t-167 442.5zM188 590q0 -231 144.5 -380t374.5 -149q190 0 369 107.5t292 293t113 396.5q0 225 -144.5 369.5t-373.5 144.5 q-195 0 -373 -104.5t-290 -286.5t-112 -391zM829 1763h111l94 -227h-86z" />
<glyph unicode="&#xd3;" d="M96 590q0 229 126 431t328 319.5t423 117.5q266 0 433 -168t167 -430q0 -233 -126 -439t-329 -326t-422 -120q-266 0 -433 172.5t-167 442.5zM188 590q0 -231 144.5 -380t374.5 -149q190 0 369 107.5t292 293t113 396.5q0 225 -144.5 369.5t-373.5 144.5 q-195 0 -373 -104.5t-290 -286.5t-112 -391zM944 1536l180 227h119l-205 -227h-94z" />
<glyph unicode="&#xd4;" d="M96 590q0 229 126 431t328 319.5t423 117.5q266 0 433 -168t167 -430q0 -233 -126 -439t-329 -326t-422 -120q-266 0 -433 172.5t-167 442.5zM188 590q0 -231 144.5 -380t374.5 -149q190 0 369 107.5t292 293t113 396.5q0 225 -144.5 369.5t-373.5 144.5 q-195 0 -373 -104.5t-290 -286.5t-112 -391zM770 1536l207 227h107l120 -227h-96l-84 164h-4l-145 -164h-105z" />
<glyph unicode="&#xd5;" d="M96 590q0 229 126 431t328 319.5t423 117.5q266 0 433 -168t167 -430q0 -233 -126 -439t-329 -326t-422 -120q-266 0 -433 172.5t-167 442.5zM188 590q0 -231 144.5 -380t374.5 -149q190 0 369 107.5t292 293t113 396.5q0 225 -144.5 369.5t-373.5 144.5 q-195 0 -373 -104.5t-290 -286.5t-112 -391zM691 1542q41 221 206 221q61 0 99.5 -37.5t68 -75.5t68.5 -38q80 0 111 145h81q-41 -221 -204 -221q-49 0 -85 23.5t-52.5 52t-43 52.5t-57.5 24q-80 0 -110 -146h-82z" />
<glyph unicode="&#xd6;" d="M96 590q0 229 126 431t328 319.5t423 117.5q266 0 433 -168t167 -430q0 -233 -126 -439t-329 -326t-422 -120q-266 0 -433 172.5t-167 442.5zM188 590q0 -231 144.5 -380t374.5 -149q190 0 369 107.5t292 293t113 396.5q0 225 -144.5 369.5t-373.5 144.5 q-195 0 -373 -104.5t-290 -286.5t-112 -391zM819 1614l31 149h94l-31 -149h-94zM1100 1614l30 149h95l-31 -149h-94z" />
<glyph unicode="&#xd7;" horiz-adv-x="1386" d="M182 57l459 523l-459 522l58 57l456 -518l457 518l57 -57l-460 -522l460 -523l-57 -57l-457 518l-456 -518z" />
<glyph unicode="&#xd8;" d="M96 590q0 229 126 431t328 319.5t423 117.5q217 0 373 -117l129 142l61 -58l-127 -139q164 -164 164 -426q0 -233 -126 -439t-329 -326t-422 -120q-215 0 -370 117l-133 -145l-64 55l133 145q-166 170 -166 443zM188 590q1 -226 138 -373l958 1055q-135 100 -321 100 q-195 0 -373 -104.5t-290 -286.5t-112 -391zM387 162q135 -100 320 -101q190 0 369 107.5t292 293t113 396.5q0 217 -135 359z" />
<glyph unicode="&#xd9;" horiz-adv-x="1441" d="M168 369q0 55 12 116l152 779q10 55 10 59q0 29 -39 29h-86l16 82h105q96 0 96 -76q0 -25 -12 -86l-154 -787q-10 -47 -10 -102q0 -152 92 -237t258 -85q199 0 338 117t178 316l162 833q20 106 135 107h109l-17 -82h-92q-43 0 -51 -45l-162 -834q-43 -227 -204.5 -362.5 t-395.5 -135.5q-203 0 -321.5 106t-118.5 288zM741 1763h111l94 -227h-86z" />
<glyph unicode="&#xda;" horiz-adv-x="1441" d="M168 369q0 55 12 116l152 779q10 55 10 59q0 29 -39 29h-86l16 82h105q96 0 96 -76q0 -25 -12 -86l-154 -787q-10 -47 -10 -102q0 -152 92 -237t258 -85q199 0 338 117t178 316l162 833q20 106 135 107h109l-17 -82h-92q-43 0 -51 -45l-162 -834q-43 -227 -204.5 -362.5 t-395.5 -135.5q-203 0 -321.5 106t-118.5 288zM856 1536l180 227h119l-205 -227h-94z" />
<glyph unicode="&#xdb;" horiz-adv-x="1441" d="M168 369q0 55 12 116l152 779q10 55 10 59q0 29 -39 29h-86l16 82h105q96 0 96 -76q0 -25 -12 -86l-154 -787q-10 -47 -10 -102q0 -152 92 -237t258 -85q199 0 338 117t178 316l162 833q20 106 135 107h109l-17 -82h-92q-43 0 -51 -45l-162 -834q-43 -227 -204.5 -362.5 t-395.5 -135.5q-203 0 -321.5 106t-118.5 288zM682 1536l207 227h107l120 -227h-96l-84 164h-4l-145 -164h-105z" />
<glyph unicode="&#xdc;" horiz-adv-x="1441" d="M168 369q0 55 12 116l152 779q10 55 10 59q0 29 -39 29h-86l16 82h105q96 0 96 -76q0 -25 -12 -86l-154 -787q-10 -47 -10 -102q0 -152 92 -237t258 -85q199 0 338 117t178 316l162 833q20 106 135 107h109l-17 -82h-92q-43 0 -51 -45l-162 -834q-43 -227 -204.5 -362.5 t-395.5 -135.5q-203 0 -321.5 106t-118.5 288zM731 1614l31 149h94l-31 -149h-94zM1012 1614l30 149h95l-31 -149h-94z" />
<glyph unicode="&#xdd;" horiz-adv-x="1198" d="M160 1352l16 82h39q61 0 91 -25t59 -94l182 -447l57 -161h4q61 92 119 161l354 447q59 74 96 96.5t107 22.5h43l-16 -82h-37q-57 0 -100 -56l-535 -673l-123 -623h-88l123 623l-275 673q-23 55 -69 56h-47zM727 1536l180 227h119l-205 -227h-94z" />
<glyph unicode="&#xde;" horiz-adv-x="1167" d="M100 0l254 1307q8 45 -35 45h-88l17 82h102q98 0 99 -78q0 -12 -5 -41l-28 -148h352q170 0 272.5 -90t102.5 -246q0 -223 -154.5 -363t-365.5 -140h-369l-66 -328h-88zM268 410h359q176 0 300 114.5t124 304.5q0 123 -78 189.5t-215 66.5h-359z" />
<glyph unicode="&#xdf;" horiz-adv-x="1130" d="M-74 0l17 78h86q45 0 53 43l190 983q33 164 160 259t275 95q143 0 222 -71.5t79 -178.5q0 -84 -52.5 -155.5t-116 -113.5t-115.5 -96.5t-52 -105.5q0 -45 53 -95t117.5 -92t118 -111.5t53.5 -147.5q0 -125 -106.5 -215t-245.5 -90q-90 0 -171 17t-118 36l-35 18l18 90 q119 -78 303 -77q98 0 180.5 57t82.5 164q0 51 -36 99t-86 85t-100.5 75t-86 86t-35.5 99q0 68 53 132.5t115.5 105.5t115.5 103.5t53 127.5q0 70 -53 120t-155 50q-119 0 -221.5 -78.5t-129.5 -212.5l-188 -966q-12 -61 -43 -89t-92 -28h-107z" />
<glyph unicode="&#xe0;" horiz-adv-x="1032" d="M2 242q0 113 65.5 192.5t175 118.5t221 55.5t236.5 16.5h78l6 32q12 63 13 111q0 201 -234 201q-86 0 -169 -22.5t-93 -78.5l-12 -69h-86l18 94q10 55 75.5 93t136.5 50.5t140 12.5q156 0 233 -76t77 -201q0 -51 -15 -129l-94 -487q0 -4 -3 -14.5t-4 -19.5t-1 -13 q0 -31 37 -31h88l-14 -78h-93q-109 0 -108 82q0 55 26 139h-4q2 0 -13 -25.5t-49 -61.5t-79 -71.5t-113.5 -61.5t-144.5 -26q-125 0 -211 67t-86 200zM94 252q0 -92 59.5 -144.5t155.5 -52.5q166 0 290 141.5t153 292.5l10 56h-64q-604 0 -604 -293zM461 1433h111l94 -227 h-86z" />
<glyph unicode="&#xe1;" horiz-adv-x="1032" d="M2 242q0 113 65.5 192.5t175 118.5t221 55.5t236.5 16.5h78l6 32q12 63 13 111q0 201 -234 201q-86 0 -169 -22.5t-93 -78.5l-12 -69h-86l18 94q10 55 75.5 93t136.5 50.5t140 12.5q156 0 233 -76t77 -201q0 -51 -15 -129l-94 -487q0 -4 -3 -14.5t-4 -19.5t-1 -13 q0 -31 37 -31h88l-14 -78h-93q-109 0 -108 82q0 55 26 139h-4q2 0 -13 -25.5t-49 -61.5t-79 -71.5t-113.5 -61.5t-144.5 -26q-125 0 -211 67t-86 200zM94 252q0 -92 59.5 -144.5t155.5 -52.5q166 0 290 141.5t153 292.5l10 56h-64q-604 0 -604 -293zM576 1206l180 227h119 l-205 -227h-94z" />
<glyph unicode="&#xe2;" horiz-adv-x="1032" d="M2 242q0 113 65.5 192.5t175 118.5t221 55.5t236.5 16.5h78l6 32q12 63 13 111q0 201 -234 201q-86 0 -169 -22.5t-93 -78.5l-12 -69h-86l18 94q10 55 75.5 93t136.5 50.5t140 12.5q156 0 233 -76t77 -201q0 -51 -15 -129l-94 -487q0 -4 -3 -14.5t-4 -19.5t-1 -13 q0 -31 37 -31h88l-14 -78h-93q-109 0 -108 82q0 55 26 139h-4q2 0 -13 -25.5t-49 -61.5t-79 -71.5t-113.5 -61.5t-144.5 -26q-125 0 -211 67t-86 200zM94 252q0 -92 59.5 -144.5t155.5 -52.5q166 0 290 141.5t153 292.5l10 56h-64q-604 0 -604 -293zM401 1206l207 227h107 l120 -227h-96l-84 164h-4l-145 -164h-105z" />
<glyph unicode="&#xe3;" horiz-adv-x="1032" d="M2 242q0 113 65.5 192.5t175 118.5t221 55.5t236.5 16.5h78l6 32q12 63 13 111q0 201 -234 201q-86 0 -169 -22.5t-93 -78.5l-12 -69h-86l18 94q10 55 75.5 93t136.5 50.5t140 12.5q156 0 233 -76t77 -201q0 -51 -15 -129l-94 -487q0 -4 -3 -14.5t-4 -19.5t-1 -13 q0 -31 37 -31h88l-14 -78h-93q-109 0 -108 82q0 55 26 139h-4q2 0 -13 -25.5t-49 -61.5t-79 -71.5t-113.5 -61.5t-144.5 -26q-125 0 -211 67t-86 200zM94 252q0 -92 59.5 -144.5t155.5 -52.5q166 0 290 141.5t153 292.5l10 56h-64q-604 0 -604 -293zM322 1212 q41 221 206 221q61 0 99.5 -37.5t68 -75.5t68.5 -38q80 0 111 145h81q-41 -221 -204 -221q-49 0 -85 23.5t-52.5 52t-43 52.5t-57.5 24q-80 0 -110 -146h-82z" />
<glyph unicode="&#xe4;" horiz-adv-x="1032" d="M2 242q0 113 65.5 192.5t175 118.5t221 55.5t236.5 16.5h78l6 32q12 63 13 111q0 201 -234 201q-86 0 -169 -22.5t-93 -78.5l-12 -69h-86l18 94q10 55 75.5 93t136.5 50.5t140 12.5q156 0 233 -76t77 -201q0 -51 -15 -129l-94 -487q0 -4 -3 -14.5t-4 -19.5t-1 -13 q0 -31 37 -31h88l-14 -78h-93q-109 0 -108 82q0 55 26 139h-4q2 0 -13 -25.5t-49 -61.5t-79 -71.5t-113.5 -61.5t-144.5 -26q-125 0 -211 67t-86 200zM94 252q0 -92 59.5 -144.5t155.5 -52.5q166 0 290 141.5t153 292.5l10 56h-64q-604 0 -604 -293zM451 1284l30 150h94 l-30 -150h-94zM731 1284l31 150h94l-31 -150h-94z" />
<glyph unicode="&#xe5;" horiz-adv-x="1032" d="M2 242q0 113 65.5 192.5t175 118.5t221 55.5t236.5 16.5h78l6 32q12 63 13 111q0 201 -234 201q-86 0 -169 -22.5t-93 -78.5l-12 -69h-86l18 94q10 55 75.5 93t136.5 50.5t140 12.5q156 0 233 -76t77 -201q0 -51 -15 -129l-94 -487q0 -4 -3 -14.5t-4 -19.5t-1 -13 q0 -31 37 -31h88l-14 -78h-93q-109 0 -108 82q0 55 26 139h-4q2 0 -13 -25.5t-49 -61.5t-79 -71.5t-113.5 -61.5t-144.5 -26q-125 0 -211 67t-86 200zM94 252q0 -92 59.5 -144.5t155.5 -52.5q166 0 290 141.5t153 292.5l10 56h-64q-604 0 -604 -293zM500 1304q0 63 50 110.5 t111 47.5q57 0 93 -34t36 -87q0 -63 -48.5 -110.5t-114.5 -47.5q-55 0 -91 34t-36 87zM575 1306q1 -53 54 -53q39 0 62.5 24.5t23.5 63.5q0 53 -58 53q-33 0 -57.5 -25.5t-24.5 -62.5z" />
<glyph unicode="&#xe6;" horiz-adv-x="1753" d="M4 231q0 383 641 383h131q18 102 19 144q0 211 -230 211q-86 0 -169 -22.5t-93 -78.5l-12 -69h-86l18 94q10 55 76 93t136.5 50.5t139.5 12.5q147 0 221 -60.5t81 -161.5h4q164 221 436 222q176 0 267 -98.5t91 -266.5q0 -29 -6 -66.5t-12 -60.5l-6 -22h-805 q-12 -53 -12 -115q0 -168 87 -264.5t253 -96.5q88 0 174 32t127 65l43 32l32 -77q-18 -14 -51 -37t-131 -61t-190 -38q-168 0 -279 82t-139 224h-4q-12 -29 -42 -72t-84.5 -99.5t-140.5 -95.5t-184 -39q-131 0 -216 67.5t-85 188.5zM96 238q0 -78 57.5 -130.5t165.5 -52.5 q156 0 276 133.5t157 300.5l10 46h-141q-525 0 -525 -297zM870 614h707q6 45 6 82q0 137 -74.5 205t-191.5 68q-145 0 -266.5 -91.5t-180.5 -263.5z" />
<glyph unicode="&#xe7;" horiz-adv-x="1062" d="M61 414q0 268 186.5 451.5t422.5 183.5q76 0 154.5 -18.5t139 -70t48.5 -122.5l-15 -80h-86l11 59q8 51 -38 86t-104.5 48.5t-117.5 13.5q-195 0 -352.5 -158t-157.5 -387q0 -168 92 -264.5t258 -96.5q102 0 191 34t126 67l37 33l33 -78q-6 -6 -16.5 -15.5t-47.5 -33 t-78.5 -42t-109.5 -34t-139 -15.5h-17l-37 -98q49 -8 83 -40t34 -81q0 -86 -65.5 -130t-147.5 -44l-94 8l14 78q35 -10 82 -10q127 0 127 90q0 63 -110 64l-25 -2l70 172q-164 23 -257.5 136t-93.5 296z" />
<glyph unicode="&#xe8;" horiz-adv-x="1087" d="M57 403q0 254 173 450t429 196q174 0 262.5 -99.5t88.5 -263.5q0 -33 -7.5 -73t-13.5 -64l-6 -23h-821q-12 -51 -12 -112q0 -156 94 -255.5t266 -99.5q86 0 172 32t129 65l41 32l33 -77q-18 -14 -52 -37t-133.5 -61t-193.5 -38q-199 0 -324 115.5t-125 312.5zM182 606 h727q8 39 9 86q0 137 -73 207t-192 70q-150 0 -280 -95.5t-191 -267.5zM533 1433h111l94 -227h-86z" />
<glyph unicode="&#xe9;" horiz-adv-x="1087" d="M57 403q0 254 173 450t429 196q174 0 262.5 -99.5t88.5 -263.5q0 -33 -7.5 -73t-13.5 -64l-6 -23h-821q-12 -51 -12 -112q0 -156 94 -255.5t266 -99.5q86 0 172 32t129 65l41 32l33 -77q-18 -14 -52 -37t-133.5 -61t-193.5 -38q-199 0 -324 115.5t-125 312.5zM182 606 h727q8 39 9 86q0 137 -73 207t-192 70q-150 0 -280 -95.5t-191 -267.5zM647 1206l180 227h119l-205 -227h-94z" />
<glyph unicode="&#xea;" horiz-adv-x="1087" d="M57 403q0 254 173 450t429 196q174 0 262.5 -99.5t88.5 -263.5q0 -33 -7.5 -73t-13.5 -64l-6 -23h-821q-12 -51 -12 -112q0 -156 94 -255.5t266 -99.5q86 0 172 32t129 65l41 32l33 -77q-18 -14 -52 -37t-133.5 -61t-193.5 -38q-199 0 -324 115.5t-125 312.5zM182 606 h727q8 39 9 86q0 137 -73 207t-192 70q-150 0 -280 -95.5t-191 -267.5zM473 1206l207 227h107l120 -227h-96l-84 164h-4l-145 -164h-105z" />
<glyph unicode="&#xeb;" horiz-adv-x="1087" d="M57 403q0 254 173 450t429 196q174 0 262.5 -99.5t88.5 -263.5q0 -33 -7.5 -73t-13.5 -64l-6 -23h-821q-12 -51 -12 -112q0 -156 94 -255.5t266 -99.5q86 0 172 32t129 65l41 32l33 -77q-18 -14 -52 -37t-133.5 -61t-193.5 -38q-199 0 -324 115.5t-125 312.5zM182 606 h727q8 39 9 86q0 137 -73 207t-192 70q-150 0 -280 -95.5t-191 -267.5zM522 1284l31 150h94l-31 -150h-94zM803 1284l31 150h94l-31 -150h-94z" />
<glyph unicode="&#xec;" horiz-adv-x="452" d="M86 84q0 31 6 59l141 727q6 31 7 48q0 29 -37 28h-88l16 78h96q102 0 103 -80q0 -18 -8 -63l-144 -738q-6 -31 -6 -37q0 -29 39 -28h88l-14 -78h-101q-98 0 -98 84zM162 1433h111l94 -227h-86z" />
<glyph unicode="&#xed;" horiz-adv-x="452" d="M86 84q0 31 6 59l141 727q6 31 7 48q0 29 -37 28h-88l16 78h96q102 0 103 -80q0 -18 -8 -63l-144 -738q-6 -31 -6 -37q0 -29 39 -28h88l-14 -78h-101q-98 0 -98 84zM277 1206l180 227h119l-205 -227h-94z" />
<glyph unicode="&#xee;" horiz-adv-x="452" d="M86 84q0 31 6 59l141 727q6 31 7 48q0 29 -37 28h-88l16 78h96q102 0 103 -80q0 -18 -8 -63l-144 -738q-6 -31 -6 -37q0 -29 39 -28h88l-14 -78h-101q-98 0 -98 84zM102 1206l207 227h107l120 -227h-96l-84 164h-4l-145 -164h-105z" />
<glyph unicode="&#xef;" horiz-adv-x="452" d="M86 84q0 31 6 59l141 727q6 31 7 48q0 29 -37 28h-88l16 78h96q102 0 103 -80q0 -18 -8 -63l-144 -738q-6 -31 -6 -37q0 -29 39 -28h88l-14 -78h-101q-98 0 -98 84zM152 1284l30 150h94l-30 -150h-94zM432 1284l31 150h94l-31 -150h-94z" />
<glyph unicode="&#xf0;" horiz-adv-x="1144" d="M53 375q0 223 160 403t422 180q66 0 124 -14t93 -34.5t60.5 -42t35.5 -36.5l10 -14h5q-35 240 -209 381l-383 -164l-21 76l330 141q-121 72 -293 121l37 72q209 -57 346 -154l285 121l22 -76l-237 -100q217 -195 217 -510q0 -115 -36 -240t-105.5 -241.5t-191.5 -192.5 t-275 -76q-190 0 -293 115t-103 285zM143 379q0 -137 80 -229.5t226 -92.5q211 0 355 181.5t144 369.5q0 121 -85 195t-230 74q-199 0 -344.5 -147.5t-145.5 -350.5z" />
<glyph unicode="&#xf1;" horiz-adv-x="1206" d="M61 0l168 864q6 29 7 49q0 33 -39 33h-84l14 78h96q102 0 103 -82q0 -47 -33 -174h4q57 100 180 190.5t289 90.5q289 0 289 -271q0 -49 -15 -129l-98 -506q-6 -31 -6 -37q0 -29 39 -28h88l-14 -78h-101q-100 0 -100 84q0 23 6 51l94 486q16 78 17 141q0 203 -205 203 q-184 0 -332.5 -145.5t-183.5 -323.5l-97 -496h-86zM451 1212q41 221 206 221q61 0 99.5 -37.5t68 -75.5t68.5 -38q80 0 111 145h81q-41 -221 -204 -221q-49 0 -85 23.5t-52.5 52t-43 52.5t-57.5 24q-80 0 -110 -146h-82z" />
<glyph unicode="&#xf2;" horiz-adv-x="1230" d="M57 420q0 258 192.5 443.5t444.5 185.5q197 0 320 -123t123 -316q0 -260 -193.5 -447.5t-443.5 -187.5q-197 0 -320 125t-123 320zM147 422q0 -160 101.5 -261.5t261.5 -101.5q205 0 371 163t166 386q0 156 -101.5 256.5t-261.5 100.5q-209 0 -373 -161t-164 -382z M578 1433h111l94 -227h-86z" />
<glyph unicode="&#xf3;" horiz-adv-x="1230" d="M57 420q0 258 192.5 443.5t444.5 185.5q197 0 320 -123t123 -316q0 -260 -193.5 -447.5t-443.5 -187.5q-197 0 -320 125t-123 320zM147 422q0 -160 101.5 -261.5t261.5 -101.5q205 0 371 163t166 386q0 156 -101.5 256.5t-261.5 100.5q-209 0 -373 -161t-164 -382z M692 1206l180 227h119l-205 -227h-94z" />
<glyph unicode="&#xf4;" horiz-adv-x="1230" d="M57 420q0 258 192.5 443.5t444.5 185.5q197 0 320 -123t123 -316q0 -260 -193.5 -447.5t-443.5 -187.5q-197 0 -320 125t-123 320zM147 422q0 -160 101.5 -261.5t261.5 -101.5q205 0 371 163t166 386q0 156 -101.5 256.5t-261.5 100.5q-209 0 -373 -161t-164 -382z M518 1206l207 227h107l120 -227h-96l-84 164h-4l-145 -164h-105z" />
<glyph unicode="&#xf5;" horiz-adv-x="1230" d="M57 420q0 258 192.5 443.5t444.5 185.5q197 0 320 -123t123 -316q0 -260 -193.5 -447.5t-443.5 -187.5q-197 0 -320 125t-123 320zM147 422q0 -160 101.5 -261.5t261.5 -101.5q205 0 371 163t166 386q0 156 -101.5 256.5t-261.5 100.5q-209 0 -373 -161t-164 -382z M439 1212q41 221 206 221q61 0 99.5 -37.5t68 -75.5t68.5 -38q80 0 111 145h81q-41 -221 -204 -221q-49 0 -85 23.5t-52.5 52t-43 52.5t-57.5 24q-80 0 -110 -146h-82z" />
<glyph unicode="&#xf6;" horiz-adv-x="1230" d="M57 420q0 258 192.5 443.5t444.5 185.5q197 0 320 -123t123 -316q0 -260 -193.5 -447.5t-443.5 -187.5q-197 0 -320 125t-123 320zM147 422q0 -160 101.5 -261.5t261.5 -101.5q205 0 371 163t166 386q0 156 -101.5 256.5t-261.5 100.5q-209 0 -373 -161t-164 -382z M567 1284l31 150h94l-30 -150h-95zM848 1284l31 150h94l-31 -150h-94z" />
<glyph unicode="&#xf7;" horiz-adv-x="1228" d="M119 539v82h975v-82h-975zM547 156v120h117v-120h-117zM547 883v121h117v-121h-117z" />
<glyph unicode="&#xf8;" horiz-adv-x="1230" d="M57 420q0 256 191.5 442.5t435.5 186.5q162 0 285 -86l102 112l55 -53l-104 -115q115 -129 115 -297q0 -258 -192.5 -446.5t-434.5 -188.5q-156 0 -270 76l-101 -108l-55 53l98 106q-125 129 -125 318zM147 422q1 -150 95 -254l665 729q-98 68 -223 68q-209 0 -373 -161 t-164 -382zM299 117q94 -57 211 -58q205 0 371 163t166 386q0 131 -86 234z" />
<glyph unicode="&#xf9;" horiz-adv-x="1212" d="M121 946l14 78h101q100 0 100 -84q0 -23 -6 -51l-94 -486q-16 -78 -17 -141q0 -203 205 -203q180 0 325.5 145.5t180.5 323.5l96 496h86l-168 -864q-6 -29 -6 -49q0 -33 39 -33h84l-14 -78h-97q-102 0 -102 82q0 47 33 174h-4q-55 -98 -176 -189.5t-283 -91.5 q-289 1 -289 271q0 49 14 129l99 506q6 31 6 37q0 29 -39 28h-88zM549 1433h111l94 -227h-86z" />
<glyph unicode="&#xfa;" horiz-adv-x="1212" d="M121 946l14 78h101q100 0 100 -84q0 -23 -6 -51l-94 -486q-16 -78 -17 -141q0 -203 205 -203q180 0 325.5 145.5t180.5 323.5l96 496h86l-168 -864q-6 -29 -6 -49q0 -33 39 -33h84l-14 -78h-97q-102 0 -102 82q0 47 33 174h-4q-55 -98 -176 -189.5t-283 -91.5 q-289 1 -289 271q0 49 14 129l99 506q6 31 6 37q0 29 -39 28h-88zM664 1206l180 227h119l-205 -227h-94z" />
<glyph unicode="&#xfb;" horiz-adv-x="1212" d="M121 946l14 78h101q100 0 100 -84q0 -23 -6 -51l-94 -486q-16 -78 -17 -141q0 -203 205 -203q180 0 325.5 145.5t180.5 323.5l96 496h86l-168 -864q-6 -29 -6 -49q0 -33 39 -33h84l-14 -78h-97q-102 0 -102 82q0 47 33 174h-4q-55 -98 -176 -189.5t-283 -91.5 q-289 1 -289 271q0 49 14 129l99 506q6 31 6 37q0 29 -39 28h-88zM489 1206l207 227h107l120 -227h-96l-84 164h-4l-145 -164h-105z" />
<glyph unicode="&#xfc;" horiz-adv-x="1212" d="M121 946l14 78h101q100 0 100 -84q0 -23 -6 -51l-94 -486q-16 -78 -17 -141q0 -203 205 -203q180 0 325.5 145.5t180.5 323.5l96 496h86l-168 -864q-6 -29 -6 -49q0 -33 39 -33h84l-14 -78h-97q-102 0 -102 82q0 47 33 174h-4q-55 -98 -176 -189.5t-283 -91.5 q-289 1 -289 271q0 49 14 129l99 506q6 31 6 37q0 29 -39 28h-88zM539 1284l30 150h95l-31 -150h-94zM819 1284l31 150h94l-31 -150h-94z" />
<glyph unicode="&#xfd;" horiz-adv-x="1064" d="M-174 -336l47 66l4 -4q4 -4 8 -9.5t12.5 -12.5t17.5 -14t20.5 -14.5t23.5 -12.5t27.5 -8t31.5 -3q119 0 234 184l108 174l-196 887q-10 49 -68 49h-16l16 78h51q49 0 67.5 -25.5t35.5 -93.5l156 -698l16 -96h4q23 47 53 96l424 698q47 76 82 97.5t111 21.5h18l-16 -78 h-17q-57 0 -88 -49l-692 -1137q-117 -190 -289 -190q-53 0 -100 23.5t-68 46.5zM582 1206l180 227h119l-205 -227h-94z" />
<glyph unicode="&#xfe;" horiz-adv-x="1150" d="M-39 -410l330 1690q6 31 6 47q0 29 -37 29h-88l16 78h97q102 0 102 -80q0 -14 -8 -60l-68 -346q-18 -92 -30 -129h4q57 96 157.5 163t241.5 67q176 0 272.5 -109t96.5 -307q0 -276 -168 -467t-389 -191q-119 0 -209 60.5t-121 171.5h-4q-4 -49 -15 -101l-100 -516h-86z M215 391q0 -145 70.5 -238.5t203.5 -93.5q180 0 327 161t147 405q0 166 -75 253t-208 87q-203 0 -334 -181.5t-131 -392.5z" />
<glyph unicode="&#xff;" horiz-adv-x="1064" d="M-174 -336l47 66l4 -4q4 -4 8 -9.5t12.5 -12.5t17.5 -14t20.5 -14.5t23.5 -12.5t27.5 -8t31.5 -3q119 0 234 184l108 174l-196 887q-10 49 -68 49h-16l16 78h51q49 0 67.5 -25.5t35.5 -93.5l156 -698l16 -96h4q23 47 53 96l424 698q47 76 82 97.5t111 21.5h18l-16 -78 h-17q-57 0 -88 -49l-692 -1137q-117 -190 -289 -190q-53 0 -100 23.5t-68 46.5zM457 1284l30 150h95l-31 -150h-94zM737 1284l31 150h94l-31 -150h-94z" />
<glyph unicode="&#x152;" horiz-adv-x="1878" d="M98 578q0 354 256 615t602 261q39 0 132.5 -10t123.5 -10h574q96 0 96 -76q0 -25 -12 -86l-12 -66h-86l12 64q8 45 8 51q0 31 -39 31h-563l-115 -588h572l-17 -82h-571l-101 -518q-8 -41 -8 -53q0 -29 37 -29h582q47 0 55 45l18 100h87l-21 -110q-12 -66 -45 -91.5 t-92 -25.5h-617q-27 0 -115.5 -10t-125.5 -10q-283 0 -449 166t-166 432zM190 567q0 -225 139.5 -364.5t379.5 -139.5q33 0 69.5 4.5t57.5 8.5l18 4l248 1274q-66 16 -141 16q-317 0 -544 -236.5t-227 -566.5z" />
<glyph unicode="&#x153;" horiz-adv-x="2058" d="M57 420q0 256 193.5 442.5t439.5 186.5q162 0 273.5 -83t152.5 -225h4q80 139 212 223.5t292 84.5q178 0 267 -99.5t89 -263.5q0 -33 -7 -73t-13 -64l-6 -23h-821q-12 -51 -13 -112q0 -156 94.5 -255.5t266.5 -99.5q86 0 172 32t129 65l41 32l32 -77q-18 -14 -50.5 -37 t-131 -61t-192.5 -38q-166 0 -284 82t-155 228h-4q-86 -139 -232.5 -224.5t-301.5 -85.5q-201 0 -324 125t-123 320zM147 422q0 -160 101.5 -261.5t261.5 -101.5q205 0 371 163t166 386q0 156 -101.5 256.5t-261.5 100.5q-209 0 -373 -161t-164 -382zM1153 606h727 q8 39 8 86q0 137 -72.5 207t-191.5 70q-150 0 -280 -95.5t-191 -267.5z" />
<glyph unicode="&#x178;" horiz-adv-x="1198" d="M160 1352l16 82h39q61 0 91 -25t59 -94l182 -447l57 -161h4q61 92 119 161l354 447q59 74 96 96.5t107 22.5h43l-16 -82h-37q-57 0 -100 -56l-535 -673l-123 -623h-88l123 623l-275 673q-23 55 -69 56h-47zM602 1614l31 149h94l-31 -149h-94zM883 1614l30 149h95 l-31 -149h-94z" />
<glyph unicode="&#x2c6;" horiz-adv-x="933" d="M223 1536l207 227h107l120 -227h-96l-84 164h-4l-145 -164h-105z" />
<glyph unicode="&#x2dc;" horiz-adv-x="956" d="M154 1542q41 221 206 221q61 0 99.5 -37.5t68 -75.5t68.5 -38q80 0 111 145h81q-41 -221 -204 -221q-49 0 -85 23.5t-52.5 52t-43 52.5t-57.5 24q-80 0 -110 -146h-82z" />
<glyph unicode="&#x2000;" horiz-adv-x="896" />
<glyph unicode="&#x2001;" horiz-adv-x="1792" />
<glyph unicode="&#x2002;" horiz-adv-x="896" />
<glyph unicode="&#x2003;" horiz-adv-x="1792" />
<glyph unicode="&#x2004;" horiz-adv-x="597" />
<glyph unicode="&#x2005;" horiz-adv-x="448" />
<glyph unicode="&#x2006;" horiz-adv-x="298" />
<glyph unicode="&#x2007;" horiz-adv-x="298" />
<glyph unicode="&#x2008;" horiz-adv-x="224" />
<glyph unicode="&#x2009;" horiz-adv-x="358" />
<glyph unicode="&#x200a;" horiz-adv-x="99" />
<glyph unicode="&#x2010;" horiz-adv-x="860" d="M133 539l14 82h566l-15 -82h-565z" />
<glyph unicode="&#x2011;" horiz-adv-x="860" d="M133 539l14 82h566l-15 -82h-565z" />
<glyph unicode="&#x2012;" horiz-adv-x="860" d="M133 539l14 82h566l-15 -82h-565z" />
<glyph unicode="&#x2013;" horiz-adv-x="1269" d="M133 539l14 81h975l-14 -81h-975z" />
<glyph unicode="&#x2014;" horiz-adv-x="1679" d="M133 539l14 82h1385l-14 -82h-1385z" />
<glyph unicode="&#x2018;" horiz-adv-x="374" d="M207 1139l158 309h79l-131 -309h-106z" />
<glyph unicode="&#x2019;" horiz-adv-x="368" d="M213 1143l131 309h107l-158 -309h-80z" />
<glyph unicode="&#x201a;" horiz-adv-x="444" d="M-39 -184l131 309h107l-158 -309h-80z" />
<glyph unicode="&#x201c;" horiz-adv-x="579" d="M207 1139l158 309h79l-131 -309h-106zM412 1139l158 309h79l-131 -309h-106z" />
<glyph unicode="&#x201d;" horiz-adv-x="573" d="M213 1143l131 309h107l-158 -309h-80zM418 1143l131 309h106l-157 -309h-80z" />
<glyph unicode="&#x201e;" horiz-adv-x="649" d="M-39 -184l131 309h107l-158 -309h-80zM166 -184l131 309h106l-157 -309h-80z" />
<glyph unicode="&#x2022;" horiz-adv-x="768" d="M109 596q0 113 78.5 191.5t191.5 78.5t191.5 -78.5t78.5 -191.5t-78.5 -191.5t-191.5 -78.5t-191.5 78.5t-78.5 191.5z" />
<glyph unicode="&#x2026;" horiz-adv-x="1288" d="M35 0l22 121h117l-22 -121h-117zM471 0l22 121h117l-22 -121h-117zM907 0l22 121h117l-22 -121h-117z" />
<glyph unicode="&#x202f;" horiz-adv-x="358" />
<glyph unicode="&#x2039;" horiz-adv-x="595" d="M45 584l393 415h117l-408 -426l259 -415h-99z" />
<glyph unicode="&#x203a;" horiz-adv-x="602" d="M32 158l408 426l-258 415h98l262 -426l-393 -415h-117z" />
<glyph unicode="&#x205f;" horiz-adv-x="448" />
<glyph unicode="&#x20ac;" horiz-adv-x="1185" d="M76 549l14 82h115q6 104 33 203h-111l14 81h123q102 240 317.5 391.5t460.5 151.5q49 0 97.5 -6t72.5 -12l23 -6l-37 -82q-70 20 -158 20q-213 0 -399 -126t-281 -331h670l-31 -81h-669q-27 -90 -37 -203h625l-29 -82h-598q4 -211 131 -349.5t362 -138.5q47 0 93.5 6.5 t68.5 14.5l25 6l8 -86q-86 -27 -197 -27q-260 0 -419.5 159t-161.5 415h-125z" />
<glyph unicode="&#x2122;" horiz-adv-x="2152" d="M250 1272v65q0 55 20.5 76t75.5 21h545q55 0 75.5 -20.5t20.5 -76.5v-65h-80v61q0 23 -22 23h-228v-815h-79v815h-226q-23 0 -22 -23v-61h-80zM1004 541v75h53q23 0 24 23l62 795h71l259 -553l28 -82h4q10 41 29 82l258 553h72l61 -795q2 -23 25 -23h53v-75h-59 q-53 0 -73 19.5t-24 76.5l-47 575l2 58h-4l-260 -561h-70l-260 561h-4l2 -58l-47 -575q-4 -57 -23.5 -76.5t-72.5 -19.5h-59z" />
<glyph unicode="&#x25fc;" horiz-adv-x="1024" d="M0 0v1024h1024v-1024h-1024z" />
</font>
</defs>
</svg>
